<?xml version="1.0" encoding="UTF-8" standalone="no"?><!DOCTYPE svg PUBLIC "-//W3C//DTD SVG 1.1//EN" "http://www.w3.org/Graphics/SVG/1.1/DTD/svg11.dtd"><svg width="100%" height="100%" viewBox="0 0 686 381" version="1.1" xmlns="http://www.w3.org/2000/svg" xmlns:xlink="http://www.w3.org/1999/xlink" xml:space="preserve" style="fill-rule:evenodd;clip-rule:evenodd;stroke-linejoin:round;stroke-miterlimit:1.41421;"><rect id="logo-farjump" x="0.93" y="0.785" width="684.92" height="380" style="fill:none;"/><path id="_-farjump-" d="M41.365,77.261l-11.411,0l0,-3.424c0,-1.395 0.602,-2.251 1.807,-2.568c1.204,-0.317 2.504,-0.57 3.899,-0.76c1.394,-0.19 2.694,-0.634 3.898,-1.332c1.205,-0.697 1.807,-2.187 1.807,-4.469l0,-8.749c0,-6.974 0.983,-12.933 2.948,-17.878c1.966,-4.945 4.47,-9.034 7.513,-12.267c3.043,-3.234 6.435,-5.611 10.175,-7.133c3.741,-1.521 7.386,-2.282 10.936,-2.282c4.184,0 7.957,0.412 11.317,1.236c3.36,0.825 6.244,1.934 8.653,3.329c2.409,1.394 4.28,2.948 5.611,4.659c1.331,1.712 1.997,3.456 1.997,5.231c0,0.76 -0.539,1.49 -1.617,2.187c-1.077,0.697 -2.282,1.3 -3.613,1.807c-1.332,0.507 -2.631,0.887 -3.899,1.141c-1.268,0.253 -2.156,0.38 -2.663,0.38c-1.775,0 -3.106,-0.76 -3.994,-2.282c-1.395,-2.79 -3.075,-5.262 -5.04,-7.418c-1.965,-2.155 -4.913,-3.233 -8.844,-3.233c-4.565,0 -7.956,1.87 -10.175,5.611c-2.219,3.74 -3.329,9.097 -3.329,16.071l0,24.154l22.443,0c0,2.536 -0.19,4.502 -0.571,5.896c-0.38,1.395 -1.458,2.093 -3.233,2.093l-18.639,0l0,58.198c0,3.297 1.459,5.548 4.375,6.752c2.916,1.205 7.671,2.124 14.264,2.758c1.395,0.253 2.092,1.078 2.092,2.472c0,0.381 -0.063,0.951 -0.19,1.712c-0.127,0.761 -0.19,1.205 -0.19,1.331c-0.38,0 -1.49,-0.063 -3.328,-0.19c-1.839,-0.127 -4.026,-0.253 -6.562,-0.38c-2.536,-0.127 -5.262,-0.222 -8.178,-0.285c-2.917,-0.064 -5.643,-0.096 -8.179,-0.096c-2.155,0 -4.342,0.032 -6.561,0.096c-2.219,0.063 -4.343,0.158 -6.372,0.285c-2.028,0.127 -3.772,0.253 -5.23,0.38c-1.458,0.127 -2.377,0.19 -2.758,0.19c0,-0.126 -0.063,-0.57 -0.19,-1.331c-0.127,-0.761 -0.19,-1.331 -0.19,-1.712c0,-1.268 0.571,-2.028 1.712,-2.282c2.789,-0.507 5.072,-1.236 6.847,-2.187c1.775,-0.951 2.662,-2.441 2.662,-4.47l0,-61.241Z" style="fill:#707070;fill-rule:nonzero;"/><path d="M167.653,144.398c1.394,0 2.155,1.332 2.282,3.994c-3.297,2.283 -7.481,3.424 -12.553,3.424c-2.789,0 -5.198,-0.412 -7.227,-1.237c-2.029,-0.824 -3.74,-1.933 -5.135,-3.328c-1.395,-1.395 -2.473,-2.98 -3.233,-4.755c-0.761,-1.775 -1.268,-3.613 -1.522,-5.515c-3.17,5.706 -6.942,9.604 -11.316,11.697c-4.375,2.092 -9.415,3.138 -15.121,3.138c-2.535,0 -5.23,-0.222 -8.083,-0.666c-2.853,-0.444 -5.547,-1.363 -8.083,-2.758c-2.536,-1.394 -4.628,-3.36 -6.276,-5.896c-1.649,-2.536 -2.473,-5.896 -2.473,-10.08c0,-4.691 1.11,-8.654 3.329,-11.887c2.219,-3.233 5.071,-5.896 8.558,-7.988c3.487,-2.092 7.291,-3.772 11.412,-5.04c4.121,-1.268 8.083,-2.346 11.887,-3.233c2.155,-0.381 4.152,-0.793 5.991,-1.236c1.838,-0.444 3.455,-0.92 4.85,-1.427c1.775,-0.507 2.884,-1.204 3.328,-2.092c0.444,-0.888 0.666,-2.599 0.666,-5.135c0,-5.96 -1.141,-10.873 -3.424,-14.74c-2.282,-3.867 -6.339,-5.801 -12.172,-5.801c-2.156,0 -3.994,0.254 -5.516,0.761c-1.521,0.507 -2.789,1.299 -3.803,2.377c-1.015,1.078 -1.902,2.504 -2.663,4.28c-0.761,1.775 -1.522,3.867 -2.282,6.276c-0.381,1.395 -1.237,2.409 -2.568,3.043c-1.331,0.634 -3.582,1.395 -6.752,2.282c-0.761,0.254 -1.712,0.507 -2.853,0.761c-1.141,0.254 -2.092,0.38 -2.853,0.38c-1.267,0 -1.901,-1.331 -1.901,-3.994c0,-2.789 1.077,-5.579 3.233,-8.368c2.155,-2.79 4.913,-5.262 8.273,-7.418c3.36,-2.155 7.006,-3.898 10.936,-5.23c3.931,-1.331 7.671,-1.997 11.222,-1.997c4.437,0 8.431,0.381 11.982,1.141c3.55,0.761 6.593,2.156 9.129,4.185c2.536,2.028 4.469,4.754 5.801,8.178c1.331,3.423 1.997,7.861 1.997,13.313l0,32.713c0,4.438 0.158,7.64 0.475,9.605c0.317,1.965 0.793,3.518 1.427,4.66c0.887,1.775 1.87,2.948 2.948,3.518c1.077,0.571 2.187,0.856 3.328,0.856c1.395,0 2.377,-0.127 2.948,-0.38c0.57,-0.254 1.173,-0.381 1.807,-0.381Zm-28.719,-37.087l-6.086,0.951c-3.297,0.634 -6.499,1.395 -9.605,2.282c-3.107,0.888 -5.864,2.124 -8.273,3.709c-2.41,1.585 -4.343,3.582 -5.801,5.991c-1.458,2.409 -2.187,5.389 -2.187,8.939c0,4.818 1.236,8.495 3.708,11.031c2.473,2.536 5.548,3.804 9.225,3.804c2.409,0 4.786,-0.539 7.132,-1.617c2.345,-1.078 4.374,-2.599 6.086,-4.564c1.712,-1.966 3.106,-4.28 4.184,-6.942c1.078,-2.663 1.617,-5.579 1.617,-8.749l0,-14.835Z" style="fill:#707070;fill-rule:nonzero;"/><path d="M232.698,67.18c3.677,0 6.403,0.888 8.179,2.663c1.775,1.775 2.662,3.74 2.662,5.896c0,0.761 -0.127,1.458 -0.38,2.092c-0.254,0.634 -0.856,1.3 -1.807,1.997c-0.951,0.697 -2.282,1.522 -3.994,2.473c-1.712,0.951 -4.089,2.123 -7.132,3.518c-1.141,-1.395 -2.504,-2.599 -4.089,-3.613c-1.585,-1.015 -3.329,-1.522 -5.231,-1.522c-2.155,0 -4.12,0.602 -5.896,1.807c-1.775,1.204 -3.296,2.853 -4.564,4.945c-1.268,2.092 -2.251,4.501 -2.948,7.227c-0.697,2.726 -1.046,5.547 -1.046,8.464l0,32.713c0,2.789 1.458,4.85 4.374,6.181c2.917,1.331 7.101,2.377 12.553,3.138c1.268,0.254 1.902,1.014 1.902,2.282c0,0.761 -0.127,1.775 -0.381,3.043c-1.394,-0.126 -3.138,-0.221 -5.23,-0.285c-2.092,-0.063 -4.279,-0.158 -6.561,-0.285c-2.283,-0.127 -4.628,-0.222 -7.038,-0.285c-2.409,-0.064 -4.628,-0.096 -6.656,-0.096c-3.424,0 -6.974,0.096 -10.651,0.286c-3.677,0.19 -7.164,0.412 -10.461,0.665c-0.253,-1.268 -0.38,-2.282 -0.38,-3.043c0,-1.268 0.571,-2.028 1.712,-2.282c2.916,-0.507 5.484,-1.268 7.703,-2.282c2.218,-1.015 3.328,-2.473 3.328,-4.375l0,-48.308c0,-2.663 -0.159,-4.882 -0.476,-6.657c-0.317,-1.775 -0.855,-3.202 -1.616,-4.279c-0.761,-1.078 -1.87,-1.871 -3.329,-2.378c-1.458,-0.507 -3.328,-0.887 -5.61,-1.141c-1.649,-0.254 -2.473,-1.078 -2.473,-2.473c0,-0.76 0.127,-1.648 0.381,-2.662c1.648,0 3.962,-0.095 6.942,-0.285c2.979,-0.191 5.42,-0.413 7.322,-0.666c2.79,-0.507 5.23,-1.046 7.322,-1.617c2.093,-0.57 3.646,-0.856 4.66,-0.856c1.775,0 2.663,0.951 2.663,2.853l0,12.743c4.057,-4.438 8.146,-8.146 12.267,-11.126c4.121,-2.98 8.781,-4.47 13.979,-4.47Z" style="fill:#707070;fill-rule:nonzero;"/><path d="M262.558,86.77c0,-4.057 -0.729,-6.815 -2.187,-8.273c-1.458,-1.458 -4.596,-2.441 -9.414,-2.948c-1.775,0 -2.663,-0.888 -2.663,-2.663c0,-0.634 0.127,-1.458 0.38,-2.472c1.649,0 4.121,-0.095 7.418,-0.286c3.297,-0.19 5.959,-0.412 7.988,-0.665c2.789,-0.508 5.325,-1.046 7.608,-1.617c2.282,-0.571 3.93,-0.856 4.945,-0.856c1.141,0 1.902,0.254 2.282,0.761c0.38,0.507 0.571,1.204 0.571,2.092c0,1.775 -0.191,3.899 -0.571,6.371c-0.38,2.473 -0.571,5.738 -0.571,9.795l0,44.505c0,8.369 -0.285,15.374 -0.855,21.016c-0.571,5.643 -1.966,10.746 -4.185,15.311c-2.219,4.565 -5.547,9.002 -9.985,13.313c-4.438,4.311 -10.587,9.32 -18.448,15.025c-0.508,-0.38 -1.015,-0.919 -1.522,-1.616c-0.507,-0.698 -0.761,-1.49 -0.761,-2.378c0,-0.507 0.127,-0.919 0.381,-1.236c0.253,-0.317 0.507,-0.602 0.76,-0.856c3.424,-3.423 6.34,-6.593 8.749,-9.509c2.409,-2.917 4.375,-5.864 5.896,-8.844c1.522,-2.98 2.6,-6.15 3.233,-9.51c0.634,-3.36 0.951,-7.259 0.951,-11.697l0,-62.763Zm-3.233,-51.542c0,-3.043 1.046,-5.674 3.138,-7.893c2.092,-2.219 4.787,-3.328 8.084,-3.328c3.043,0 5.578,1.109 7.607,3.328c2.029,2.219 3.043,4.85 3.043,7.893c0,3.297 -1.014,5.959 -3.043,7.988c-2.029,2.029 -4.564,3.043 -7.607,3.043c-3.297,0 -5.992,-1.014 -8.084,-3.043c-2.092,-2.029 -3.138,-4.691 -3.138,-7.988Z" style="fill:#707070;fill-rule:nonzero;"/><path d="M312.008,86.77c0,-4.184 -0.602,-7.005 -1.806,-8.463c-1.205,-1.459 -3.963,-2.378 -8.274,-2.758c-1.648,-0.254 -2.472,-1.078 -2.472,-2.473c0,-0.76 0.126,-1.648 0.38,-2.662c1.648,0 3.836,-0.095 6.562,-0.286c2.726,-0.19 5.04,-0.475 6.942,-0.856c2.789,-0.38 5.23,-0.855 7.322,-1.426c2.092,-0.571 3.645,-0.856 4.66,-0.856c1.775,0 2.662,0.951 2.662,2.853l0,47.548c0,3.17 0.191,6.086 0.571,8.749c0.38,2.663 1.078,4.977 2.092,6.942c1.014,1.965 2.473,3.487 4.375,4.564c1.901,1.078 4.311,1.617 7.227,1.617c3.17,0 6.276,-0.539 9.319,-1.617c3.043,-1.077 5.738,-2.662 8.083,-4.754c2.346,-2.092 4.216,-4.66 5.611,-7.703c1.395,-3.043 2.092,-6.593 2.092,-10.651l0,-27.768c0,-4.057 -0.602,-6.847 -1.807,-8.368c-1.204,-1.522 -4.025,-2.473 -8.463,-2.853c-1.649,-0.254 -2.473,-1.078 -2.473,-2.473c0,-0.76 0.127,-1.648 0.381,-2.662c1.648,0 3.835,-0.095 6.561,-0.286c2.726,-0.19 5.104,-0.475 7.133,-0.856c2.789,-0.38 5.198,-0.855 7.227,-1.426c2.029,-0.571 3.55,-0.856 4.564,-0.856c1.776,0 2.663,0.951 2.663,2.853l0,61.812c0,2.156 0.127,3.899 0.38,5.231c0.254,1.331 0.761,2.409 1.522,3.233c0.761,0.824 1.807,1.458 3.138,1.902c1.332,0.444 3.075,0.729 5.23,0.856c1.649,0.253 2.473,1.077 2.473,2.472c0,0.761 -0.127,1.649 -0.38,2.663c-2.41,0 -4.945,0.19 -7.608,0.57c-2.663,0.381 -5.199,0.761 -7.608,1.142c-2.409,0.38 -4.533,0.76 -6.371,1.141c-1.839,0.38 -3.138,0.57 -3.899,0.57c-1.775,0 -2.663,-0.951 -2.663,-2.853l0,-15.785c-0.38,0.38 -1.458,1.584 -3.233,3.613c-1.775,2.029 -4.089,4.184 -6.942,6.467c-2.853,2.282 -6.15,4.342 -9.89,6.181c-3.741,1.838 -7.766,2.758 -12.077,2.758c-7.735,0 -13.536,-2.219 -17.403,-6.657c-3.867,-4.438 -5.801,-10.714 -5.801,-18.829l0,-39.56Z" style="fill:#707070;fill-rule:nonzero;"/><path d="M488.697,86.2c0.507,-0.381 1.648,-1.585 3.423,-3.614c1.775,-2.029 4.089,-4.184 6.942,-6.467c2.853,-2.282 6.15,-4.374 9.89,-6.276c3.74,-1.902 7.766,-2.853 12.077,-2.853c7.608,0 12.997,2.251 16.167,6.752c3.169,4.501 4.754,10.746 4.754,18.734l0,46.217c0,1.901 1.141,3.328 3.424,4.279c2.282,0.951 4.818,1.68 7.607,2.187c1.142,0.254 1.712,1.014 1.712,2.282c0,0.761 -0.127,1.775 -0.38,3.043c-3.297,-0.253 -6.53,-0.475 -9.7,-0.665c-3.17,-0.19 -6.593,-0.286 -10.27,-0.286c-3.297,0 -6.657,0.096 -10.081,0.286c-3.423,0.19 -6.72,0.412 -9.89,0.665c-0.253,-1.268 -0.38,-2.282 -0.38,-3.043c0,-1.268 0.571,-2.028 1.712,-2.282c1.141,-0.127 2.314,-0.38 3.518,-0.761c1.205,-0.38 2.314,-0.824 3.329,-1.331c1.014,-0.507 1.87,-1.11 2.567,-1.807c0.698,-0.697 1.046,-1.553 1.046,-2.567l0,-39.18c0,-7.861 -0.951,-13.155 -2.852,-15.881c-1.902,-2.726 -5.009,-4.089 -9.32,-4.089c-3.297,0 -6.435,0.539 -9.414,1.616c-2.98,1.078 -5.611,2.663 -7.893,4.755c-2.283,2.092 -4.121,4.66 -5.516,7.703c-1.395,3.043 -2.092,6.53 -2.092,10.461l0,34.615c0,1.901 1.078,3.328 3.233,4.279c2.156,0.951 4.565,1.68 7.228,2.187c1.141,0.254 1.711,1.014 1.711,2.282c0,0.761 -0.127,1.775 -0.38,3.043c-3.297,-0.253 -6.498,-0.475 -9.605,-0.665c-3.106,-0.19 -6.371,-0.286 -9.795,-0.286c-3.423,0 -6.815,0.096 -10.175,0.286c-3.36,0.19 -6.688,0.412 -9.985,0.665c-0.254,-1.268 -0.38,-2.282 -0.38,-3.043c0,-1.268 0.57,-2.028 1.711,-2.282c2.283,-0.38 4.597,-1.046 6.942,-1.997c2.346,-0.951 3.519,-2.441 3.519,-4.469l0,-39.18c0,-7.861 -0.919,-13.155 -2.758,-15.881c-1.838,-2.726 -4.913,-4.089 -9.224,-4.089c-3.297,0 -6.435,0.539 -9.415,1.616c-2.979,1.078 -5.642,2.663 -7.988,4.755c-2.345,2.092 -4.216,4.66 -5.61,7.703c-1.395,3.043 -2.093,6.53 -2.093,10.461l0,34.615c0,1.901 1.11,3.328 3.329,4.279c2.219,0.951 4.596,1.68 7.132,2.187c1.141,0.254 1.712,1.014 1.712,2.282c0,0.761 -0.127,1.775 -0.381,3.043c-3.296,-0.253 -6.53,-0.475 -9.699,-0.665c-3.17,-0.19 -6.53,-0.286 -10.081,-0.286c-3.677,0 -7.164,0.096 -10.46,0.286c-3.297,0.19 -6.53,0.412 -9.7,0.665c-0.254,-1.268 -0.38,-2.282 -0.38,-3.043c0,-1.268 0.57,-2.028 1.711,-2.282c2.79,-0.507 5.326,-1.236 7.608,-2.187c2.282,-0.951 3.424,-2.441 3.424,-4.47l0,-51.732c0,-3.804 -0.666,-6.53 -1.998,-8.178c-1.331,-1.648 -4.215,-2.663 -8.653,-3.043c-1.649,-0.254 -2.473,-1.141 -2.473,-2.663c0,-0.634 0.127,-1.458 0.381,-2.472c1.648,0 3.962,-0.095 6.942,-0.286c2.979,-0.19 5.42,-0.412 7.322,-0.665c2.916,-0.508 5.516,-1.046 7.798,-1.617c2.282,-0.571 3.931,-0.856 4.945,-0.856c1.775,0 2.663,0.951 2.663,2.853c0,1.775 -0.191,3.899 -0.571,6.371c-0.38,2.473 -0.571,5.738 -0.571,9.795c0.381,-0.38 1.459,-1.585 3.234,-3.613c1.775,-2.029 4.089,-4.185 6.942,-6.467c2.853,-2.282 6.118,-4.343 9.795,-6.181c3.677,-1.839 7.734,-2.758 12.172,-2.758c6.593,0 11.506,1.68 14.74,5.04c3.233,3.36 5.167,8.083 5.801,14.17Z" style="fill:#707070;fill-rule:nonzero;"/><path d="M593.302,134.128c3.17,3.297 6.657,5.928 10.461,7.893c3.803,1.965 8.115,2.948 12.933,2.948c3.677,0 6.91,-0.824 9.699,-2.473c2.79,-1.648 5.104,-3.899 6.942,-6.751c1.839,-2.853 3.234,-6.277 4.185,-10.271c0.951,-3.994 1.426,-8.337 1.426,-13.028c0,-4.818 -0.539,-9.414 -1.616,-13.789c-1.078,-4.374 -2.663,-8.21 -4.755,-11.506c-2.092,-3.297 -4.628,-5.896 -7.608,-7.798c-2.98,-1.902 -6.308,-2.853 -9.985,-2.853c-2.536,0 -5.072,0.729 -7.608,2.187c-2.536,1.458 -4.85,3.328 -6.942,5.611c-2.092,2.282 -3.804,4.85 -5.135,7.702c-1.331,2.853 -1.997,5.738 -1.997,8.654l0,33.474Zm-15.976,-48.119c0,-3.55 -0.602,-6.086 -1.807,-7.607c-1.204,-1.522 -3.962,-2.473 -8.273,-2.853c-1.649,-0.254 -2.473,-1.078 -2.473,-2.473c0,-0.76 0.127,-1.648 0.381,-2.662c1.648,0 3.899,-0.095 6.752,-0.286c2.852,-0.19 5.23,-0.475 7.132,-0.856c2.789,-0.38 5.293,-0.855 7.512,-1.426c2.219,-0.571 3.836,-0.856 4.85,-0.856c1.649,0 2.473,0.951 2.473,2.853c0,1.522 -0.095,3.328 -0.286,5.421c-0.19,2.092 -0.285,5.166 -0.285,9.224c3.804,-4.945 8.083,-9.098 12.838,-12.458c4.755,-3.36 10.619,-5.04 17.593,-5.04c4.311,0 8.463,0.888 12.457,2.663c3.994,1.775 7.513,4.406 10.556,7.893c3.043,3.487 5.484,7.766 7.322,12.838c1.839,5.072 2.758,10.841 2.758,17.307c0,7.101 -1.331,13.377 -3.994,18.829c-2.663,5.452 -5.959,10.049 -9.89,13.789c-3.93,3.741 -8.21,6.593 -12.838,8.559c-4.628,1.965 -8.907,2.948 -12.838,2.948c-4.057,0 -8.019,-0.381 -11.887,-1.141c-3.867,-0.761 -7.893,-2.093 -12.077,-3.994l0,34.424c0,3.297 1.458,5.548 4.375,6.752c2.916,1.205 7.671,2.124 14.264,2.758c1.395,0.253 2.092,1.078 2.092,2.472c0,0.761 -0.127,1.775 -0.38,3.043c-2.917,-0.253 -6.911,-0.475 -11.982,-0.665c-5.072,-0.19 -9.827,-0.286 -14.265,-0.286c-3.296,0 -6.783,0.096 -10.46,0.286c-3.677,0.19 -7.164,0.412 -10.461,0.665c-0.254,-1.268 -0.38,-2.282 -0.38,-3.043c0,-1.268 0.57,-2.028 1.711,-2.282c2.79,-0.634 5.072,-1.395 6.847,-2.282c1.775,-0.888 2.663,-2.346 2.663,-4.375l0,-98.139Z" style="fill:#707070;fill-rule:nonzero;"/><g transform="matrix(0.827399,0,0,0.460148,-4890.21,-542.602)"><g transform="matrix(1.53558,0,0,2.76116,-3185.57,-2909.71)"><path d="M5953.66,1689.83l21.637,0l0,-2.153l-19.323,0l0,-15.771l15.017,0l0,-2.153l-15.017,0l0,-15.447l18.301,0l0,-2.153l-20.615,0l0,37.677Z" style="fill:none;"/><path d="M5983.32,1689.83l2.261,0l0,-13.133c0,-1.292 0.107,-2.53 0.43,-3.66c1.238,-4.468 5.006,-8.666 9.796,-8.666c5.921,0 6.567,4.575 6.567,9.204l0,16.255l2.261,0l0,-13.133c0,-1.561 0.161,-2.907 0.538,-4.145c1.184,-4.198 5.005,-8.181 9.473,-8.181c5.705,0 6.728,4.144 6.728,9.204l0,16.255l2.26,0l0,-17.062c0,-6.406 -2.045,-10.496 -8.988,-10.496c-4.629,0 -8.72,3.552 -10.227,7.32l-0.107,0c-0.593,-4.79 -3.122,-7.32 -8.505,-7.32c-4.198,0 -8.988,3.552 -10.334,7.589l-0.108,0c0,0 0.216,-0.969 0.216,-2.207l0,-4.736l-2.261,0l0,26.912Z" style="fill:none;"/><path d="M6032.73,1689.83l2.26,0l0,-3.068c0,-1.4 -0.215,-2.368 -0.215,-2.368l0.108,0c0,0 2.529,6.082 9.311,6.082c7.051,0 12.057,-5.544 12.057,-14.102c0,-8.343 -4.414,-14.102 -11.626,-14.102c-7.428,0 -9.742,6.082 -9.742,6.082l-0.108,0c0,0 0.215,-0.969 0.215,-2.207l0,-13.994l-2.26,0l0,37.677Zm2.207,-13.402c0,-8.451 4.628,-11.949 9.58,-11.949c5.49,0 9.366,4.628 9.366,11.895c0,7.535 -4.306,11.895 -9.581,11.895c-6.298,0 -9.365,-5.867 -9.365,-11.841Z" style="fill:none;"/><path d="M6062.01,1676.43c0,8.558 6.297,14.048 13.887,14.048c5.813,0 9.58,-3.714 9.58,-3.714l-1.238,-1.884c0,0 -3.175,3.391 -8.342,3.391c-6.244,0 -11.519,-4.468 -11.519,-12.272l21.584,0c0,0 0.107,-0.861 0.107,-1.453c0,-6.513 -3.66,-12.272 -10.98,-12.272c-6.889,0 -13.079,5.059 -13.079,14.156Zm2.53,-2.53c0.969,-6.298 5.544,-9.527 10.496,-9.527c4.467,0 8.396,2.96 8.665,9.527l-19.161,0Z" style="fill:none;"/><path d="M6091.88,1676.38c0,8.343 4.414,14.102 11.627,14.102c7.427,0 9.742,-6.082 9.742,-6.082l0.107,0c0,0 -0.215,0.807 -0.215,2.045l0,3.391l2.261,0l0,-37.677l-2.261,0l0,13.994c0,1.238 0.215,2.207 0.215,2.207l-0.107,0c0,0 -2.53,-6.082 -9.312,-6.082c-7.051,0 -12.057,5.544 -12.057,14.102Zm2.369,0c0,-7.536 4.306,-11.895 9.58,-11.895c6.298,0 9.366,5.866 9.366,11.841c0,8.45 -4.629,11.949 -9.581,11.949c-5.49,0 -9.365,-4.629 -9.365,-11.895Z" style="fill:none;"/><path d="M6123.1,1676.38c0,8.343 4.413,14.102 11.626,14.102c7.427,0 9.742,-6.082 9.742,-6.082l0.107,0c0,0 -0.215,0.807 -0.215,2.045l0,3.391l2.261,0l0,-37.677l-2.261,0l0,13.994c0,1.238 0.215,2.207 0.215,2.207l-0.107,0c0,0 -2.53,-6.082 -9.312,-6.082c-7.051,0 -12.056,5.544 -12.056,14.102Zm2.368,0c0,-7.536 4.306,-11.895 9.58,-11.895c6.298,0 9.366,5.866 9.366,11.841c0,8.45 -4.629,11.949 -9.581,11.949c-5.49,0 -9.365,-4.629 -9.365,-11.895Z" style="fill:none;"/><path d="M6154.21,1676.43c0,8.558 6.297,14.048 13.887,14.048c5.813,0 9.58,-3.714 9.58,-3.714l-1.238,-1.884c0,0 -3.175,3.391 -8.342,3.391c-6.244,0 -11.519,-4.468 -11.519,-12.272l21.584,0c0,0 0.107,-0.861 0.107,-1.453c0,-6.513 -3.66,-12.272 -10.98,-12.272c-6.889,0 -13.079,5.059 -13.079,14.156Zm2.53,-2.53c0.968,-6.298 5.544,-9.527 10.495,-9.527c4.468,0 8.397,2.96 8.666,9.527l-19.161,0Z" style="fill:none;"/><path d="M6184.08,1676.38c0,8.343 4.414,14.102 11.626,14.102c7.428,0 9.742,-6.082 9.742,-6.082l0.108,0c0,0 -0.215,0.807 -0.215,2.045l0,3.391l2.26,0l0,-37.677l-2.26,0l0,13.994c0,1.238 0.215,2.207 0.215,2.207l-0.108,0c0,0 -2.529,-6.082 -9.311,-6.082c-7.051,0 -12.057,5.544 -12.057,14.102Zm2.369,0c0,-7.536 4.305,-11.895 9.58,-11.895c6.298,0 9.366,5.866 9.366,11.841c0,8.45 -4.629,11.949 -9.581,11.949c-5.49,0 -9.365,-4.629 -9.365,-11.895Z" style="fill:none;"/><path d="M6230.26,1685.8c0,0 4.091,4.683 11.519,4.683c6.728,0 10.926,-4.36 10.926,-9.796c0,-12.595 -19.269,-9.527 -19.269,-19.485c0,-3.66 3.337,-7.427 8.935,-7.427c5.006,0 8.235,3.229 8.235,3.229l1.292,-1.991c0,0 -3.445,-3.499 -9.581,-3.499c-6.836,0 -11.303,4.737 -11.303,9.742c0,11.788 19.269,8.827 19.269,19.538c0,4.522 -3.714,7.428 -8.397,7.428c-6.243,0 -10.065,-4.198 -10.065,-4.198l-1.561,1.776Z" style="fill:none;"/><path d="M6258.52,1676.21c0,8.02 6.244,14.264 13.941,14.264c7.696,0 13.94,-6.244 13.94,-14.264c0,-7.858 -6.244,-13.94 -13.94,-13.94c-7.697,0 -13.941,6.082 -13.941,13.94Zm2.368,0c0,-6.674 5.168,-11.733 11.573,-11.733c6.405,0 11.572,5.059 11.572,11.733c0,6.836 -5.167,12.057 -11.572,12.057c-6.405,0 -11.573,-5.221 -11.573,-12.057Z" style="fill:none;"/><path d="M6294.85,1689.83l2.261,0l0,-24.705l7.374,0l0,-2.046l-7.374,0l0,-1.292c0,-6.943 4.252,-7.804 6.405,-7.804c0.754,0 1.238,0.108 1.238,0.108l0,-2.1c0,0 -0.538,-0.107 -1.399,-0.107c-2.692,0 -8.505,1.076 -8.505,9.957l0,1.238l-3.39,0l0,2.046l3.39,0l0,24.705Z" style="fill:none;"/><path d="M6311,1680.09c0,8.934 5.759,9.957 8.558,9.957c0.807,0 1.345,-0.108 1.345,-0.108l0,-2.099c0,0 -0.484,0.108 -1.238,0.108c-2.153,0 -6.405,-0.915 -6.405,-8.02l0,-14.801l7.051,0l0,-2.046l-7.051,0l0,-7.643l-2.26,0l0,7.643l-3.553,0l0,2.046l3.553,0l0,14.963Z" style="fill:none;"/><path d="M6332.9,1689.83l2.422,0l7.428,-20.884c0.484,-1.292 0.915,-2.906 0.915,-2.906l0.108,0c0,0 0.43,1.614 0.915,2.906l7.481,20.884l2.422,0l9.473,-26.912l-2.422,0l-7.32,21.099c-0.484,1.345 -0.915,2.906 -0.915,2.906l-0.108,0c0,0 -0.484,-1.614 -0.915,-2.906l-7.373,-20.992l-2.53,0l-7.374,20.992c-0.431,1.292 -0.915,2.906 -0.915,2.906l-0.108,0c0,0 -0.484,-1.614 -0.915,-2.906l-7.32,-21.099l-2.422,0l9.473,26.912Z" style="fill:none;"/><path d="M6367.73,1682.67c0,5.383 4.791,7.805 9.15,7.805c6.998,0 9.474,-6.621 9.42,-6.621l0.107,0c0,0 -0.215,0.969 -0.215,2.422l0,3.553l2.261,0l0,-17.385c0,-6.728 -3.337,-10.173 -9.527,-10.173c-5.867,0 -9.096,2.96 -9.096,2.96l1.291,1.83c0,0 3.014,-2.583 7.697,-2.583c4.306,0 7.374,2.045 7.374,8.019l0,0.915l-1.776,0c-4.79,0 -16.686,0.108 -16.686,9.258Zm2.369,-0.161c0,-6.997 9.796,-6.997 14.371,-6.997l1.722,0l0,1.453c0,5.328 -3.337,11.411 -9.204,11.411c-4.575,0 -6.889,-3.015 -6.889,-5.867Z" style="fill:none;"/><path d="M6397.55,1689.83l2.261,0l0,-11.626c0,-1.776 0.215,-3.768 0.807,-5.652c1.184,-3.983 3.821,-7.535 8.02,-7.535c0.592,0 1.238,0.108 1.238,0.108l0,-2.261c0,0 -0.754,-0.162 -1.561,-0.162c-4.252,0 -7.266,3.391 -8.612,7.536l-0.108,0c0,0 0.216,-0.969 0.216,-2.207l0,-5.113l-2.261,0l0,26.912Z" style="fill:none;"/><path d="M6413.21,1676.43c0,8.558 6.297,14.048 13.886,14.048c5.813,0 9.581,-3.714 9.581,-3.714l-1.238,-1.884c0,0 -3.175,3.391 -8.343,3.391c-6.243,0 -11.518,-4.468 -11.518,-12.272l21.584,0c0,0 0.107,-0.861 0.107,-1.453c0,-6.513 -3.66,-12.272 -10.98,-12.272c-6.889,0 -13.079,5.059 -13.079,14.156Zm2.53,-2.53c0.968,-6.298 5.543,-9.527 10.495,-9.527c4.468,0 8.397,2.96 8.666,9.527l-19.161,0Z" style="fill:none;"/><path d="M5952.58,1755.66l2.314,0l2.314,-28.742c0.162,-1.83 0.162,-5.113 0.162,-5.113l0.108,0c0,0 1.184,3.337 1.991,5.113l10.065,21.476l2.368,0l10.119,-21.476c0.862,-1.83 1.938,-5.006 1.938,-5.006l0.108,0c0,0 0,3.176 0.161,5.006l2.315,28.742l2.314,0l-3.014,-37.677l-2.261,0l-10.98,23.683c-0.861,1.83 -1.83,4.252 -1.83,4.252l-0.108,0c0,0 -0.968,-2.422 -1.83,-4.252l-10.98,-23.683l-2.26,0l-3.014,37.677Z" style="fill:none;"/><path d="M5996.12,1748.5c0,5.383 4.791,7.805 9.15,7.805c6.998,0 9.473,-6.621 9.42,-6.621l0.107,0c0,0 -0.215,0.969 -0.215,2.423l0,3.552l2.261,0l0,-17.385c0,-6.728 -3.338,-10.173 -9.527,-10.173c-5.867,0 -9.097,2.96 -9.097,2.96l1.292,1.83c0,0 3.014,-2.583 7.697,-2.583c4.306,0 7.374,2.045 7.374,8.02l0,0.915l-1.776,0c-4.791,0 -16.686,0.107 -16.686,9.257Zm2.369,-0.161c0,-6.997 9.796,-6.997 14.371,-6.997l1.722,0l0,1.453c0,5.329 -3.337,11.411 -9.204,11.411c-4.575,0 -6.889,-3.014 -6.889,-5.867Z" style="fill:none;"/><path d="M6024.17,1742.2c0,8.343 4.413,14.102 11.626,14.102c7.427,0 9.742,-6.082 9.742,-6.082l0.108,0c0,0 -0.216,0.807 -0.216,2.045l0,3.391l2.261,0l0,-37.677l-2.261,0l0,13.994c0,1.238 0.216,2.207 0.216,2.207l-0.108,0c0,0 -2.53,-6.082 -9.312,-6.082c-7.051,0 -12.056,5.544 -12.056,14.102Zm2.368,0c0,-7.535 4.306,-11.895 9.581,-11.895c6.297,0 9.365,5.867 9.365,11.841c0,8.45 -4.629,11.949 -9.581,11.949c-5.49,0 -9.365,-4.629 -9.365,-11.895Z" style="fill:none;"/><path d="M6055.28,1742.25c0,8.558 6.297,14.048 13.887,14.048c5.813,0 9.58,-3.714 9.58,-3.714l-1.238,-1.884c0,0 -3.175,3.391 -8.342,3.391c-6.244,0 -11.519,-4.467 -11.519,-12.272l21.584,0c0,0 0.107,-0.861 0.107,-1.453c0,-6.513 -3.66,-12.272 -10.98,-12.272c-6.889,0 -13.079,5.059 -13.079,14.156Zm2.53,-2.53c0.969,-6.297 5.544,-9.527 10.495,-9.527c4.468,0 8.397,2.96 8.666,9.527l-19.161,0Z" style="fill:none;"/><path d="M6102.91,1755.66l21.638,0l0,-2.153l-19.323,0l0,-15.77l15.017,0l0,-2.153l-15.017,0l0,-15.448l18.3,0l0,-2.153l-20.615,0l0,37.677Z" style="fill:none;"/><path d="M6130.36,1748.5c0,5.383 4.79,7.805 9.15,7.805c6.997,0 9.473,-6.621 9.419,-6.621l0.108,0c0,0 -0.216,0.969 -0.216,2.423l0,3.552l2.261,0l0,-17.385c0,-6.728 -3.337,-10.173 -9.527,-10.173c-5.867,0 -9.096,2.96 -9.096,2.96l1.292,1.83c0,0 3.014,-2.583 7.697,-2.583c4.305,0 7.373,2.045 7.373,8.02l0,0.915l-1.776,0c-4.79,0 -16.685,0.107 -16.685,9.257Zm2.368,-0.161c0,-6.997 9.796,-6.997 14.371,-6.997l1.722,0l0,1.453c0,5.329 -3.337,11.411 -9.203,11.411c-4.576,0 -6.89,-3.014 -6.89,-5.867Z" style="fill:none;"/><path d="M6157.87,1752.43c0,0 3.229,3.875 9.742,3.875c4.952,0 8.612,-2.96 8.612,-7.266c0,-8.935 -14.802,-6.836 -14.802,-13.833c0,-3.499 3.014,-4.898 6.082,-4.898c4.576,0 6.782,2.53 6.782,2.53l1.346,-1.83c0,0 -2.476,-2.907 -7.966,-2.907c-4.575,0 -8.612,2.476 -8.612,7.266c0,8.774 14.802,6.836 14.802,13.672c0,3.337 -2.907,5.059 -6.19,5.059c-5.329,0 -8.343,-3.391 -8.343,-3.391l-1.453,1.723Z" style="fill:none;"/><path d="M6179.34,1765.45c0,0 1.776,1.507 4.36,1.507c3.39,0 5.651,-2.207 6.835,-5.006l13.833,-33.209l-2.422,0l-8.881,21.476c-0.538,1.292 -0.915,2.529 -0.915,2.529l-0.108,0c0,0 -0.43,-1.237 -0.969,-2.529l-8.881,-21.476l-2.422,0l11.142,26.75l-1.938,4.468c-1.076,2.53 -2.691,4.844 -5.274,4.844c-1.83,0 -3.338,-1.292 -3.338,-1.292l-1.022,1.938Z" style="fill:none;"/></g><g transform="matrix(1.53558,0,0,2.76116,-3185.57,-2909.71)"><path d="M5953.66,1689.83l21.637,0l0,-2.153l-19.323,0l0,-15.771l15.017,0l0,-2.153l-15.017,0l0,-15.447l18.301,0l0,-2.153l-20.615,0l0,37.677Z" style="fill:#424242;fill-rule:nonzero;"/><path d="M5983.32,1689.83l2.261,0l0,-13.133c0,-1.292 0.107,-2.53 0.43,-3.66c1.238,-4.468 5.006,-8.666 9.796,-8.666c5.921,0 6.567,4.575 6.567,9.204l0,16.255l2.261,0l0,-13.133c0,-1.561 0.161,-2.907 0.538,-4.145c1.184,-4.198 5.005,-8.181 9.473,-8.181c5.705,0 6.728,4.144 6.728,9.204l0,16.255l2.26,0l0,-17.062c0,-6.406 -2.045,-10.496 -8.988,-10.496c-4.629,0 -8.72,3.552 -10.227,7.32l-0.107,0c-0.593,-4.79 -3.122,-7.32 -8.505,-7.32c-4.198,0 -8.988,3.552 -10.334,7.589l-0.108,0c0,0 0.216,-0.969 0.216,-2.207l0,-4.736l-2.261,0l0,26.912Z" style="fill:#424242;fill-rule:nonzero;"/><path d="M6032.73,1689.83l2.26,0l0,-3.068c0,-1.4 -0.215,-2.368 -0.215,-2.368l0.108,0c0,0 2.529,6.082 9.311,6.082c7.051,0 12.057,-5.544 12.057,-14.102c0,-8.343 -4.414,-14.102 -11.626,-14.102c-7.428,0 -9.742,6.082 -9.742,6.082l-0.108,0c0,0 0.215,-0.969 0.215,-2.207l0,-13.994l-2.26,0l0,37.677Zm2.207,-13.402c0,-8.451 4.628,-11.949 9.58,-11.949c5.49,0 9.366,4.628 9.366,11.895c0,7.535 -4.306,11.895 -9.581,11.895c-6.298,0 -9.365,-5.867 -9.365,-11.841Z" style="fill:#424242;fill-rule:nonzero;"/><path d="M6062.01,1676.43c0,8.558 6.297,14.048 13.887,14.048c5.813,0 9.58,-3.714 9.58,-3.714l-1.238,-1.884c0,0 -3.175,3.391 -8.342,3.391c-6.244,0 -11.519,-4.468 -11.519,-12.272l21.584,0c0,0 0.107,-0.861 0.107,-1.453c0,-6.513 -3.66,-12.272 -10.98,-12.272c-6.889,0 -13.079,5.059 -13.079,14.156Zm2.53,-2.53c0.969,-6.298 5.544,-9.527 10.496,-9.527c4.467,0 8.396,2.96 8.665,9.527l-19.161,0Z" style="fill:#424242;fill-rule:nonzero;"/><path d="M6091.88,1676.38c0,8.343 4.414,14.102 11.627,14.102c7.427,0 9.742,-6.082 9.742,-6.082l0.107,0c0,0 -0.215,0.807 -0.215,2.045l0,3.391l2.261,0l0,-37.677l-2.261,0l0,13.994c0,1.238 0.215,2.207 0.215,2.207l-0.107,0c0,0 -2.53,-6.082 -9.312,-6.082c-7.051,0 -12.057,5.544 -12.057,14.102Zm2.369,0c0,-7.536 4.306,-11.895 9.58,-11.895c6.298,0 9.366,5.866 9.366,11.841c0,8.45 -4.629,11.949 -9.581,11.949c-5.49,0 -9.365,-4.629 -9.365,-11.895Z" style="fill:#424242;fill-rule:nonzero;"/><path d="M6123.1,1676.38c0,8.343 4.413,14.102 11.626,14.102c7.427,0 9.742,-6.082 9.742,-6.082l0.107,0c0,0 -0.215,0.807 -0.215,2.045l0,3.391l2.261,0l0,-37.677l-2.261,0l0,13.994c0,1.238 0.215,2.207 0.215,2.207l-0.107,0c0,0 -2.53,-6.082 -9.312,-6.082c-7.051,0 -12.056,5.544 -12.056,14.102Zm2.368,0c0,-7.536 4.306,-11.895 9.58,-11.895c6.298,0 9.366,5.866 9.366,11.841c0,8.45 -4.629,11.949 -9.581,11.949c-5.49,0 -9.365,-4.629 -9.365,-11.895Z" style="fill:#424242;fill-rule:nonzero;"/><path d="M6154.21,1676.43c0,8.558 6.297,14.048 13.887,14.048c5.813,0 9.58,-3.714 9.58,-3.714l-1.238,-1.884c0,0 -3.175,3.391 -8.342,3.391c-6.244,0 -11.519,-4.468 -11.519,-12.272l21.584,0c0,0 0.107,-0.861 0.107,-1.453c0,-6.513 -3.66,-12.272 -10.98,-12.272c-6.889,0 -13.079,5.059 -13.079,14.156Zm2.53,-2.53c0.968,-6.298 5.544,-9.527 10.495,-9.527c4.468,0 8.397,2.96 8.666,9.527l-19.161,0Z" style="fill:#424242;fill-rule:nonzero;"/><path d="M6184.08,1676.38c0,8.343 4.414,14.102 11.626,14.102c7.428,0 9.742,-6.082 9.742,-6.082l0.108,0c0,0 -0.215,0.807 -0.215,2.045l0,3.391l2.26,0l0,-37.677l-2.26,0l0,13.994c0,1.238 0.215,2.207 0.215,2.207l-0.108,0c0,0 -2.529,-6.082 -9.311,-6.082c-7.051,0 -12.057,5.544 -12.057,14.102Zm2.369,0c0,-7.536 4.305,-11.895 9.58,-11.895c6.298,0 9.366,5.866 9.366,11.841c0,8.45 -4.629,11.949 -9.581,11.949c-5.49,0 -9.365,-4.629 -9.365,-11.895Z" style="fill:#424242;fill-rule:nonzero;"/><path d="M6230.26,1685.8c0,0 4.091,4.683 11.519,4.683c6.728,0 10.926,-4.36 10.926,-9.796c0,-12.595 -19.269,-9.527 -19.269,-19.485c0,-3.66 3.337,-7.427 8.935,-7.427c5.006,0 8.235,3.229 8.235,3.229l1.292,-1.991c0,0 -3.445,-3.499 -9.581,-3.499c-6.836,0 -11.303,4.737 -11.303,9.742c0,11.788 19.269,8.827 19.269,19.538c0,4.522 -3.714,7.428 -8.397,7.428c-6.243,0 -10.065,-4.198 -10.065,-4.198l-1.561,1.776Z" style="fill:#424242;fill-rule:nonzero;"/><path d="M6258.52,1676.21c0,8.02 6.244,14.264 13.941,14.264c7.696,0 13.94,-6.244 13.94,-14.264c0,-7.858 -6.244,-13.94 -13.94,-13.94c-7.697,0 -13.941,6.082 -13.941,13.94Zm2.368,0c0,-6.674 5.168,-11.733 11.573,-11.733c6.405,0 11.572,5.059 11.572,11.733c0,6.836 -5.167,12.057 -11.572,12.057c-6.405,0 -11.573,-5.221 -11.573,-12.057Z" style="fill:#424242;fill-rule:nonzero;"/><path d="M6294.85,1689.83l2.261,0l0,-24.705l7.374,0l0,-2.046l-7.374,0l0,-1.292c0,-6.943 4.252,-7.804 6.405,-7.804c0.754,0 1.238,0.108 1.238,0.108l0,-2.1c0,0 -0.538,-0.107 -1.399,-0.107c-2.692,0 -8.505,1.076 -8.505,9.957l0,1.238l-3.39,0l0,2.046l3.39,0l0,24.705Z" style="fill:#424242;fill-rule:nonzero;"/><path d="M6311,1680.09c0,8.934 5.759,9.957 8.558,9.957c0.807,0 1.345,-0.108 1.345,-0.108l0,-2.099c0,0 -0.484,0.108 -1.238,0.108c-2.153,0 -6.405,-0.915 -6.405,-8.02l0,-14.801l7.051,0l0,-2.046l-7.051,0l0,-7.643l-2.26,0l0,7.643l-3.553,0l0,2.046l3.553,0l0,14.963Z" style="fill:#424242;fill-rule:nonzero;"/><path d="M6332.9,1689.83l2.422,0l7.428,-20.884c0.484,-1.292 0.915,-2.906 0.915,-2.906l0.108,0c0,0 0.43,1.614 0.915,2.906l7.481,20.884l2.422,0l9.473,-26.912l-2.422,0l-7.32,21.099c-0.484,1.345 -0.915,2.906 -0.915,2.906l-0.108,0c0,0 -0.484,-1.614 -0.915,-2.906l-7.373,-20.992l-2.53,0l-7.374,20.992c-0.431,1.292 -0.915,2.906 -0.915,2.906l-0.108,0c0,0 -0.484,-1.614 -0.915,-2.906l-7.32,-21.099l-2.422,0l9.473,26.912Z" style="fill:#424242;fill-rule:nonzero;"/><path d="M6367.73,1682.67c0,5.383 4.791,7.805 9.15,7.805c6.998,0 9.474,-6.621 9.42,-6.621l0.107,0c0,0 -0.215,0.969 -0.215,2.422l0,3.553l2.261,0l0,-17.385c0,-6.728 -3.337,-10.173 -9.527,-10.173c-5.867,0 -9.096,2.96 -9.096,2.96l1.291,1.83c0,0 3.014,-2.583 7.697,-2.583c4.306,0 7.374,2.045 7.374,8.019l0,0.915l-1.776,0c-4.79,0 -16.686,0.108 -16.686,9.258Zm2.369,-0.161c0,-6.997 9.796,-6.997 14.371,-6.997l1.722,0l0,1.453c0,5.328 -3.337,11.411 -9.204,11.411c-4.575,0 -6.889,-3.015 -6.889,-5.867Z" style="fill:#424242;fill-rule:nonzero;"/><path d="M6397.55,1689.83l2.261,0l0,-11.626c0,-1.776 0.215,-3.768 0.807,-5.652c1.184,-3.983 3.821,-7.535 8.02,-7.535c0.592,0 1.238,0.108 1.238,0.108l0,-2.261c0,0 -0.754,-0.162 -1.561,-0.162c-4.252,0 -7.266,3.391 -8.612,7.536l-0.108,0c0,0 0.216,-0.969 0.216,-2.207l0,-5.113l-2.261,0l0,26.912Z" style="fill:#424242;fill-rule:nonzero;"/><path d="M6413.21,1676.43c0,8.558 6.297,14.048 13.886,14.048c5.813,0 9.581,-3.714 9.581,-3.714l-1.238,-1.884c0,0 -3.175,3.391 -8.343,3.391c-6.243,0 -11.518,-4.468 -11.518,-12.272l21.584,0c0,0 0.107,-0.861 0.107,-1.453c0,-6.513 -3.66,-12.272 -10.98,-12.272c-6.889,0 -13.079,5.059 -13.079,14.156Zm2.53,-2.53c0.968,-6.298 5.543,-9.527 10.495,-9.527c4.468,0 8.397,2.96 8.666,9.527l-19.161,0Z" style="fill:#424242;fill-rule:nonzero;"/><path d="M5952.58,1755.66l2.314,0l2.314,-28.742c0.162,-1.83 0.162,-5.113 0.162,-5.113l0.108,0c0,0 1.184,3.337 1.991,5.113l10.065,21.476l2.368,0l10.119,-21.476c0.862,-1.83 1.938,-5.006 1.938,-5.006l0.108,0c0,0 0,3.176 0.161,5.006l2.315,28.742l2.314,0l-3.014,-37.677l-2.261,0l-10.98,23.683c-0.861,1.83 -1.83,4.252 -1.83,4.252l-0.108,0c0,0 -0.968,-2.422 -1.83,-4.252l-10.98,-23.683l-2.26,0l-3.014,37.677Z" style="fill:#424242;fill-rule:nonzero;"/><path d="M5996.12,1748.5c0,5.383 4.791,7.805 9.15,7.805c6.998,0 9.473,-6.621 9.42,-6.621l0.107,0c0,0 -0.215,0.969 -0.215,2.423l0,3.552l2.261,0l0,-17.385c0,-6.728 -3.338,-10.173 -9.527,-10.173c-5.867,0 -9.097,2.96 -9.097,2.96l1.292,1.83c0,0 3.014,-2.583 7.697,-2.583c4.306,0 7.374,2.045 7.374,8.02l0,0.915l-1.776,0c-4.791,0 -16.686,0.107 -16.686,9.257Zm2.369,-0.161c0,-6.997 9.796,-6.997 14.371,-6.997l1.722,0l0,1.453c0,5.329 -3.337,11.411 -9.204,11.411c-4.575,0 -6.889,-3.014 -6.889,-5.867Z" style="fill:#424242;fill-rule:nonzero;"/><path d="M6024.17,1742.2c0,8.343 4.413,14.102 11.626,14.102c7.427,0 9.742,-6.082 9.742,-6.082l0.108,0c0,0 -0.216,0.807 -0.216,2.045l0,3.391l2.261,0l0,-37.677l-2.261,0l0,13.994c0,1.238 0.216,2.207 0.216,2.207l-0.108,0c0,0 -2.53,-6.082 -9.312,-6.082c-7.051,0 -12.056,5.544 -12.056,14.102Zm2.368,0c0,-7.535 4.306,-11.895 9.581,-11.895c6.297,0 9.365,5.867 9.365,11.841c0,8.45 -4.629,11.949 -9.581,11.949c-5.49,0 -9.365,-4.629 -9.365,-11.895Z" style="fill:#424242;fill-rule:nonzero;"/><path d="M6055.28,1742.25c0,8.558 6.297,14.048 13.887,14.048c5.813,0 9.58,-3.714 9.58,-3.714l-1.238,-1.884c0,0 -3.175,3.391 -8.342,3.391c-6.244,0 -11.519,-4.467 -11.519,-12.272l21.584,0c0,0 0.107,-0.861 0.107,-1.453c0,-6.513 -3.66,-12.272 -10.98,-12.272c-6.889,0 -13.079,5.059 -13.079,14.156Zm2.53,-2.53c0.969,-6.297 5.544,-9.527 10.495,-9.527c4.468,0 8.397,2.96 8.666,9.527l-19.161,0Z" style="fill:#424242;fill-rule:nonzero;"/><path d="M6102.91,1755.66l21.638,0l0,-2.153l-19.323,0l0,-15.77l15.017,0l0,-2.153l-15.017,0l0,-15.448l18.3,0l0,-2.153l-20.615,0l0,37.677Z" style="fill:#424242;fill-rule:nonzero;"/><path d="M6130.36,1748.5c0,5.383 4.79,7.805 9.15,7.805c6.997,0 9.473,-6.621 9.419,-6.621l0.108,0c0,0 -0.216,0.969 -0.216,2.423l0,3.552l2.261,0l0,-17.385c0,-6.728 -3.337,-10.173 -9.527,-10.173c-5.867,0 -9.096,2.96 -9.096,2.96l1.292,1.83c0,0 3.014,-2.583 7.697,-2.583c4.305,0 7.373,2.045 7.373,8.02l0,0.915l-1.776,0c-4.79,0 -16.685,0.107 -16.685,9.257Zm2.368,-0.161c0,-6.997 9.796,-6.997 14.371,-6.997l1.722,0l0,1.453c0,5.329 -3.337,11.411 -9.203,11.411c-4.576,0 -6.89,-3.014 -6.89,-5.867Z" style="fill:#424242;fill-rule:nonzero;"/><path d="M6157.87,1752.43c0,0 3.229,3.875 9.742,3.875c4.952,0 8.612,-2.96 8.612,-7.266c0,-8.935 -14.802,-6.836 -14.802,-13.833c0,-3.499 3.014,-4.898 6.082,-4.898c4.576,0 6.782,2.53 6.782,2.53l1.346,-1.83c0,0 -2.476,-2.907 -7.966,-2.907c-4.575,0 -8.612,2.476 -8.612,7.266c0,8.774 14.802,6.836 14.802,13.672c0,3.337 -2.907,5.059 -6.19,5.059c-5.329,0 -8.343,-3.391 -8.343,-3.391l-1.453,1.723Z" style="fill:#424242;fill-rule:nonzero;"/><path d="M6179.34,1765.45c0,0 1.776,1.507 4.36,1.507c3.39,0 5.651,-2.207 6.835,-5.006l13.833,-33.209l-2.422,0l-8.881,21.476c-0.538,1.292 -0.915,2.529 -0.915,2.529l-0.108,0c0,0 -0.43,-1.237 -0.969,-2.529l-8.881,-21.476l-2.422,0l11.142,26.75l-1.938,4.468c-1.076,2.53 -2.691,4.844 -5.274,4.844c-1.83,0 -3.338,-1.292 -3.338,-1.292l-1.022,1.938Z" style="fill:#424242;fill-rule:nonzero;"/></g></g></svg>