<?xml version="1.0" encoding="UTF-8" standalone="no"?><!DOCTYPE svg PUBLIC "-//W3C//DTD SVG 1.1//EN" "http://www.w3.org/Graphics/SVG/1.1/DTD/svg11.dtd"><svg width="100%" height="100%" viewBox="0 0 758 381" version="1.1" xmlns="http://www.w3.org/2000/svg" xmlns:xlink="http://www.w3.org/1999/xlink" xml:space="preserve" style="fill-rule:evenodd;clip-rule:evenodd;stroke-linejoin:round;stroke-miterlimit:1.41421;"><rect id="logo-farjump" x="0.845" y="0.785" width="756.339" height="380" style="fill:none;"/><path id="_-farjump-" d="M22.628,72.646l-13.474,0l0,-4.042c0,-1.647 0.711,-2.658 2.133,-3.032c1.423,-0.374 2.957,-0.674 4.604,-0.898c1.647,-0.225 3.181,-0.749 4.604,-1.572c1.422,-0.823 2.133,-2.583 2.133,-5.277l0,-10.33c0,-8.234 1.16,-15.271 3.481,-21.11c2.32,-5.838 5.277,-10.667 8.87,-14.484c3.593,-3.818 7.598,-6.625 12.014,-8.421c4.417,-1.797 8.721,-2.695 12.913,-2.695c4.94,0 9.394,0.486 13.362,1.459c3.967,0.974 7.373,2.284 10.217,3.93c2.845,1.647 5.053,3.481 6.625,5.502c1.572,2.021 2.358,4.08 2.358,6.176c0,0.898 -0.636,1.759 -1.909,2.582c-1.272,0.824 -2.695,1.535 -4.267,2.134c-1.571,0.599 -3.106,1.048 -4.603,1.347c-1.497,0.3 -2.545,0.449 -3.144,0.449c-2.096,0 -3.668,-0.898 -4.716,-2.695c-1.647,-3.293 -3.63,-6.213 -5.951,-8.758c-2.32,-2.545 -5.801,-3.817 -10.442,-3.817c-5.39,0 -9.395,2.208 -12.015,6.624c-2.62,4.417 -3.929,10.742 -3.929,18.976l0,28.52l26.498,0c0,2.994 -0.224,5.315 -0.673,6.962c-0.449,1.647 -1.722,2.47 -3.818,2.47l-22.007,0l0,68.717c0,3.893 1.721,6.55 5.165,7.972c3.443,1.423 9.057,2.508 16.842,3.257c1.647,0.299 2.47,1.272 2.47,2.919c0,0.449 -0.075,1.123 -0.224,2.021c-0.15,0.898 -0.225,1.422 -0.225,1.572c-0.449,0 -1.759,-0.075 -3.93,-0.224c-2.171,-0.15 -4.753,-0.3 -7.747,-0.45c-2.995,-0.149 -6.213,-0.262 -9.657,-0.336c-3.443,-0.075 -6.662,-0.113 -9.656,-0.113c-2.545,0 -5.128,0.038 -7.748,0.113c-2.62,0.074 -5.127,0.187 -7.523,0.336c-2.395,0.15 -4.453,0.3 -6.175,0.45c-1.722,0.149 -2.807,0.224 -3.256,0.224c0,-0.15 -0.075,-0.674 -0.225,-1.572c-0.15,-0.898 -0.224,-1.572 -0.224,-2.021c0,-1.497 0.673,-2.395 2.021,-2.695c3.293,-0.599 5.988,-1.459 8.084,-2.582c2.096,-1.123 3.144,-2.882 3.144,-5.278l0,-72.31Z" style="fill:#707070;fill-rule:nonzero;"/><path d="M171.74,151.918c1.647,0 2.545,1.572 2.695,4.716c-3.893,2.695 -8.833,4.042 -14.822,4.042c-3.293,0 -6.138,-0.487 -8.533,-1.46c-2.395,-0.973 -4.417,-2.283 -6.063,-3.93c-1.647,-1.646 -2.92,-3.518 -3.818,-5.614c-0.898,-2.096 -1.497,-4.266 -1.797,-6.512c-3.742,6.737 -8.196,11.34 -13.361,13.811c-5.165,2.47 -11.116,3.705 -17.853,3.705c-2.995,0 -6.176,-0.262 -9.544,-0.786c-3.369,-0.524 -6.55,-1.609 -9.544,-3.256c-2.995,-1.647 -5.465,-3.967 -7.411,-6.962c-1.946,-2.994 -2.919,-6.961 -2.919,-11.902c0,-5.539 1.309,-10.217 3.929,-14.035c2.62,-3.818 5.989,-6.962 10.106,-9.432c4.117,-2.47 8.608,-4.454 13.474,-5.951c4.866,-1.497 9.544,-2.77 14.035,-3.818c2.545,-0.449 4.903,-0.935 7.074,-1.459c2.171,-0.524 4.08,-1.086 5.727,-1.684c2.096,-0.599 3.406,-1.423 3.929,-2.471c0.524,-1.048 0.786,-3.069 0.786,-6.063c0,-7.036 -1.347,-12.838 -4.042,-17.404c-2.695,-4.566 -7.485,-6.849 -14.372,-6.849c-2.545,0 -4.716,0.299 -6.512,0.898c-1.797,0.599 -3.294,1.535 -4.492,2.807c-1.197,1.273 -2.245,2.957 -3.144,5.053c-0.898,2.096 -1.796,4.566 -2.694,7.411c-0.45,1.646 -1.46,2.844 -3.032,3.593c-1.572,0.748 -4.229,1.646 -7.972,2.694c-0.898,0.3 -2.021,0.599 -3.369,0.899c-1.347,0.299 -2.47,0.449 -3.368,0.449c-1.497,0 -2.246,-1.572 -2.246,-4.716c0,-3.294 1.273,-6.587 3.818,-9.881c2.545,-3.294 5.801,-6.213 9.768,-8.758c3.968,-2.545 8.272,-4.604 12.913,-6.176c4.641,-1.572 9.057,-2.358 13.249,-2.358c5.24,0 9.956,0.45 14.148,1.348c4.192,0.898 7.785,2.545 10.779,4.94c2.994,2.396 5.278,5.614 6.85,9.657c1.571,4.042 2.357,9.282 2.357,15.719l0,38.626c0,5.24 0.188,9.02 0.562,11.34c0.374,2.321 0.936,4.155 1.684,5.502c1.048,2.096 2.208,3.481 3.481,4.155c1.272,0.673 2.582,1.01 3.93,1.01c1.647,0 2.807,-0.149 3.481,-0.449c0.673,-0.299 1.384,-0.449 2.133,-0.449Zm-33.91,-43.79l-7.186,1.122c-3.892,0.749 -7.672,1.647 -11.34,2.695c-3.668,1.048 -6.924,2.508 -9.769,4.379c-2.844,1.872 -5.127,4.23 -6.849,7.074c-1.722,2.845 -2.583,6.363 -2.583,10.555c0,5.689 1.46,10.03 4.379,13.024c2.92,2.995 6.55,4.492 10.892,4.492c2.844,0 5.651,-0.636 8.421,-1.909c2.77,-1.273 5.165,-3.069 7.186,-5.39c2.021,-2.32 3.668,-5.052 4.941,-8.196c1.272,-3.144 1.908,-6.588 1.908,-10.33l0,-17.516Z" style="fill:#707070;fill-rule:nonzero;"/><path d="M248.542,60.744c4.341,0 7.56,1.048 9.656,3.144c2.096,2.096 3.144,4.416 3.144,6.962c0,0.898 -0.15,1.721 -0.449,2.47c-0.3,0.748 -1.011,1.534 -2.134,2.358c-1.122,0.823 -2.694,1.796 -4.715,2.919c-2.022,1.123 -4.829,2.508 -8.422,4.155c-1.347,-1.647 -2.956,-3.07 -4.828,-4.267c-1.871,-1.198 -3.93,-1.797 -6.175,-1.797c-2.546,0 -4.866,0.711 -6.962,2.134c-2.096,1.422 -3.892,3.368 -5.39,5.838c-1.497,2.471 -2.657,5.315 -3.48,8.534c-0.824,3.219 -1.235,6.55 -1.235,9.993l0,38.625c0,3.294 1.721,5.727 5.165,7.299c3.443,1.572 8.383,2.807 14.821,3.705c1.497,0.3 2.246,1.198 2.246,2.695c0,0.898 -0.15,2.096 -0.45,3.593c-1.646,-0.15 -3.705,-0.262 -6.175,-0.337c-2.47,-0.075 -5.053,-0.187 -7.748,-0.337c-2.694,-0.149 -5.464,-0.262 -8.309,-0.336c-2.844,-0.075 -5.464,-0.113 -7.859,-0.113c-4.043,0 -8.235,0.113 -12.576,0.337c-4.342,0.225 -8.459,0.487 -12.351,0.786c-0.3,-1.497 -0.449,-2.695 -0.449,-3.593c0,-1.497 0.673,-2.395 2.021,-2.695c3.443,-0.599 6.475,-1.497 9.095,-2.695c2.62,-1.197 3.93,-2.919 3.93,-5.165l0,-57.039c0,-3.144 -0.188,-5.764 -0.562,-7.86c-0.374,-2.096 -1.01,-3.78 -1.909,-5.053c-0.898,-1.273 -2.208,-2.208 -3.93,-2.807c-1.721,-0.599 -3.93,-1.048 -6.624,-1.347c-1.947,-0.3 -2.92,-1.273 -2.92,-2.92c0,-0.898 0.15,-1.946 0.449,-3.144c1.947,0 4.679,-0.112 8.197,-0.337c3.518,-0.224 6.4,-0.486 8.646,-0.786c3.294,-0.598 6.175,-1.235 8.646,-1.908c2.47,-0.674 4.304,-1.011 5.502,-1.011c2.096,0 3.144,1.123 3.144,3.369l0,15.045c4.79,-5.239 9.618,-9.618 14.484,-13.137c4.866,-3.518 10.368,-5.277 16.506,-5.277Z" style="fill:#707070;fill-rule:nonzero;"/><path d="M283.799,83.874c0,-4.79 -0.861,-8.047 -2.583,-9.768c-1.722,-1.722 -5.427,-2.882 -11.116,-3.481c-2.096,0 -3.144,-1.048 -3.144,-3.144c0,-0.749 0.15,-1.722 0.449,-2.919c1.946,0 4.866,-0.113 8.758,-0.337c3.893,-0.225 7.037,-0.487 9.432,-0.786c3.294,-0.599 6.288,-1.235 8.983,-1.909c2.695,-0.674 4.641,-1.011 5.839,-1.011c1.347,0 2.245,0.3 2.694,0.899c0.449,0.599 0.674,1.422 0.674,2.47c0,2.096 -0.225,4.604 -0.674,7.523c-0.449,2.919 -0.673,6.774 -0.673,11.565l0,52.549c0,9.881 -0.337,18.152 -1.011,24.814c-0.674,6.662 -2.32,12.688 -4.94,18.078c-2.62,5.389 -6.55,10.629 -11.79,15.719c-5.24,5.091 -12.501,11.004 -21.783,17.741c-0.599,-0.449 -1.198,-1.085 -1.797,-1.909c-0.598,-0.823 -0.898,-1.759 -0.898,-2.807c0,-0.599 0.15,-1.085 0.449,-1.459c0.3,-0.375 0.599,-0.712 0.899,-1.011c4.042,-4.042 7.485,-7.785 10.33,-11.228c2.844,-3.444 5.165,-6.924 6.961,-10.443c1.797,-3.518 3.069,-7.261 3.818,-11.228c0.748,-3.967 1.123,-8.571 1.123,-13.811l0,-74.107Zm-3.818,-60.857c0,-3.593 1.235,-6.7 3.705,-9.32c2.471,-2.62 5.652,-3.93 9.544,-3.93c3.593,0 6.588,1.31 8.983,3.93c2.395,2.62 3.593,5.727 3.593,9.32c0,3.892 -1.198,7.036 -3.593,9.432c-2.395,2.395 -5.39,3.593 -8.983,3.593c-3.892,0 -7.073,-1.198 -9.544,-3.593c-2.47,-2.396 -3.705,-5.54 -3.705,-9.432Z" style="fill:#707070;fill-rule:nonzero;"/><path d="M342.186,83.874c0,-4.94 -0.711,-8.271 -2.134,-9.993c-1.422,-1.722 -4.678,-2.807 -9.768,-3.256c-1.946,-0.299 -2.92,-1.273 -2.92,-2.919c0,-0.899 0.15,-1.947 0.45,-3.144c1.946,0 4.528,-0.113 7.747,-0.337c3.219,-0.225 5.951,-0.562 8.197,-1.011c3.293,-0.449 6.175,-1.01 8.646,-1.684c2.47,-0.674 4.304,-1.011 5.501,-1.011c2.096,0 3.144,1.123 3.144,3.369l0,56.142c0,3.742 0.225,7.186 0.674,10.33c0.449,3.144 1.273,5.876 2.47,8.196c1.198,2.321 2.92,4.117 5.165,5.39c2.246,1.272 5.091,1.909 8.534,1.909c3.743,0 7.411,-0.637 11.004,-1.909c3.593,-1.273 6.774,-3.144 9.544,-5.614c2.769,-2.471 4.978,-5.502 6.624,-9.095c1.647,-3.593 2.471,-7.785 2.471,-12.576l0,-32.787c0,-4.79 -0.711,-8.084 -2.134,-9.881c-1.422,-1.796 -4.753,-2.919 -9.993,-3.368c-1.946,-0.299 -2.919,-1.273 -2.919,-2.919c0,-0.899 0.149,-1.947 0.449,-3.144c1.946,0 4.529,-0.113 7.747,-0.337c3.219,-0.225 6.026,-0.562 8.422,-1.011c3.293,-0.449 6.138,-1.01 8.533,-1.684c2.396,-0.674 4.192,-1.011 5.39,-1.011c2.096,0 3.144,1.123 3.144,3.369l0,72.984c0,2.545 0.149,4.604 0.449,6.176c0.299,1.572 0.898,2.844 1.796,3.817c0.899,0.973 2.134,1.722 3.706,2.246c1.572,0.524 3.63,0.861 6.175,1.01c1.946,0.3 2.92,1.273 2.92,2.92c0,0.898 -0.15,1.946 -0.45,3.144c-2.844,0 -5.838,0.224 -8.982,0.673c-3.144,0.45 -6.138,0.899 -8.983,1.348c-2.844,0.449 -5.352,0.898 -7.523,1.347c-2.171,0.449 -3.705,0.674 -4.603,0.674c-2.096,0 -3.144,-1.123 -3.144,-3.369l0,-18.639c-0.449,0.45 -1.722,1.872 -3.818,4.267c-2.096,2.396 -4.828,4.941 -8.197,7.635c-3.368,2.695 -7.261,5.128 -11.677,7.299c-4.417,2.171 -9.17,3.256 -14.26,3.256c-9.132,0 -15.982,-2.62 -20.548,-7.86c-4.566,-5.24 -6.849,-12.65 -6.849,-22.232l0,-46.71Z" style="fill:#707070;fill-rule:nonzero;"/><path d="M550.808,83.201c0.599,-0.449 1.946,-1.872 4.042,-4.267c2.096,-2.395 4.828,-4.941 8.197,-7.635c3.368,-2.695 7.261,-5.165 11.677,-7.411c4.417,-2.246 9.17,-3.369 14.26,-3.369c8.983,0 15.346,2.658 19.088,7.973c3.743,5.314 5.615,12.688 5.615,22.119l0,54.57c0,2.246 1.347,3.93 4.042,5.053c2.695,1.123 5.689,1.983 8.982,2.582c1.348,0.3 2.022,1.198 2.022,2.695c0,0.898 -0.15,2.096 -0.45,3.593c-3.892,-0.299 -7.71,-0.561 -11.453,-0.786c-3.742,-0.224 -7.784,-0.337 -12.126,-0.337c-3.893,0 -7.86,0.113 -11.902,0.337c-4.042,0.225 -7.935,0.487 -11.678,0.786c-0.299,-1.497 -0.449,-2.695 -0.449,-3.593c0,-1.497 0.674,-2.395 2.021,-2.695c1.348,-0.149 2.733,-0.449 4.155,-0.898c1.422,-0.449 2.732,-0.973 3.93,-1.572c1.197,-0.599 2.208,-1.31 3.031,-2.133c0.824,-0.824 1.236,-1.834 1.236,-3.032l0,-46.261c0,-9.282 -1.123,-15.532 -3.369,-18.751c-2.246,-3.219 -5.914,-4.828 -11.004,-4.828c-3.892,0 -7.598,0.636 -11.116,1.909c-3.518,1.272 -6.624,3.144 -9.319,5.614c-2.695,2.47 -4.866,5.502 -6.513,9.095c-1.646,3.593 -2.47,7.71 -2.47,12.351l0,40.871c0,2.246 1.273,3.93 3.818,5.053c2.545,1.123 5.389,1.983 8.533,2.582c1.348,0.3 2.021,1.198 2.021,2.695c0,0.898 -0.149,2.096 -0.449,3.593c-3.892,-0.299 -7.672,-0.561 -11.34,-0.786c-3.668,-0.224 -7.523,-0.337 -11.566,-0.337c-4.042,0 -8.046,0.113 -12.014,0.337c-3.967,0.225 -7.897,0.487 -11.79,0.786c-0.299,-1.497 -0.449,-2.695 -0.449,-3.593c0,-1.497 0.674,-2.395 2.021,-2.695c2.695,-0.449 5.427,-1.235 8.197,-2.358c2.77,-1.123 4.155,-2.882 4.155,-5.277l0,-46.261c0,-9.282 -1.086,-15.532 -3.257,-18.751c-2.17,-3.219 -5.801,-4.828 -10.891,-4.828c-3.893,0 -7.598,0.636 -11.116,1.909c-3.518,1.272 -6.662,3.144 -9.432,5.614c-2.77,2.47 -4.978,5.502 -6.625,9.095c-1.646,3.593 -2.47,7.71 -2.47,12.351l0,40.871c0,2.246 1.31,3.93 3.93,5.053c2.62,1.123 5.427,1.983 8.421,2.582c1.348,0.3 2.021,1.198 2.021,2.695c0,0.898 -0.149,2.096 -0.449,3.593c-3.892,-0.299 -7.71,-0.561 -11.453,-0.786c-3.742,-0.224 -7.71,-0.337 -11.902,-0.337c-4.341,0 -8.458,0.113 -12.351,0.337c-3.892,0.225 -7.71,0.487 -11.453,0.786c-0.299,-1.497 -0.449,-2.695 -0.449,-3.593c0,-1.497 0.674,-2.395 2.021,-2.695c3.294,-0.599 6.288,-1.459 8.983,-2.582c2.695,-1.123 4.042,-2.882 4.042,-5.278l0,-61.082c0,-4.491 -0.786,-7.71 -2.358,-9.656c-1.572,-1.946 -4.978,-3.144 -10.218,-3.593c-1.946,-0.299 -2.919,-1.347 -2.919,-3.144c0,-0.749 0.15,-1.722 0.449,-2.919c1.946,0 4.679,-0.113 8.197,-0.337c3.518,-0.225 6.4,-0.487 8.646,-0.786c3.443,-0.599 6.512,-1.235 9.207,-1.909c2.695,-0.674 4.641,-1.011 5.839,-1.011c2.096,0 3.144,1.123 3.144,3.369c0,2.096 -0.225,4.604 -0.674,7.523c-0.449,2.919 -0.674,6.774 -0.674,11.565c0.449,-0.449 1.722,-1.871 3.818,-4.267c2.096,-2.395 4.828,-4.94 8.196,-7.635c3.369,-2.695 7.224,-5.128 11.566,-7.298c4.341,-2.171 9.132,-3.257 14.372,-3.257c7.785,0 13.586,1.984 17.404,5.951c3.817,3.968 6.1,9.545 6.849,16.731Z" style="fill:#707070;fill-rule:nonzero;"/><path d="M674.319,139.791c3.743,3.893 7.86,6.999 12.352,9.32c4.491,2.32 9.581,3.481 15.27,3.481c4.342,0 8.159,-0.973 11.453,-2.92c3.294,-1.946 6.026,-4.603 8.197,-7.972c2.171,-3.368 3.817,-7.411 4.94,-12.126c1.123,-4.716 1.684,-9.844 1.684,-15.383c0,-5.689 -0.636,-11.116 -1.908,-16.281c-1.273,-5.165 -3.144,-9.694 -5.615,-13.587c-2.47,-3.892 -5.464,-6.961 -8.982,-9.207c-3.518,-2.245 -7.448,-3.368 -11.79,-3.368c-2.994,0 -5.988,0.861 -8.983,2.582c-2.994,1.722 -5.726,3.93 -8.196,6.625c-2.471,2.695 -4.492,5.726 -6.064,9.095c-1.572,3.368 -2.358,6.774 -2.358,10.218l0,39.523Zm-18.863,-56.815c0,-4.192 -0.711,-7.186 -2.133,-8.983c-1.423,-1.796 -4.679,-2.919 -9.769,-3.368c-1.946,-0.299 -2.919,-1.273 -2.919,-2.919c0,-0.899 0.149,-1.947 0.449,-3.144c1.946,0 4.603,-0.113 7.972,-0.337c3.368,-0.225 6.175,-0.562 8.421,-1.011c3.294,-0.449 6.25,-1.01 8.87,-1.684c2.62,-0.674 4.529,-1.011 5.727,-1.011c1.946,0 2.919,1.123 2.919,3.369c0,1.796 -0.112,3.93 -0.337,6.4c-0.224,2.47 -0.337,6.101 -0.337,10.892c4.492,-5.839 9.545,-10.742 15.159,-14.71c5.614,-3.967 12.538,-5.951 20.772,-5.951c5.09,0 9.993,1.048 14.709,3.144c4.716,2.096 8.871,5.203 12.464,9.32c3.593,4.117 6.475,9.17 8.645,15.158c2.171,5.989 3.257,12.8 3.257,20.436c0,8.383 -1.572,15.794 -4.716,22.232c-3.144,6.437 -7.037,11.864 -11.678,16.281c-4.641,4.416 -9.693,7.785 -15.158,10.105c-5.464,2.321 -10.517,3.481 -15.158,3.481c-4.791,0 -9.469,-0.449 -14.036,-1.347c-4.566,-0.899 -9.319,-2.471 -14.26,-4.716l0,40.646c0,3.893 1.722,6.55 5.166,7.972c3.443,1.423 9.057,2.508 16.842,3.257c1.647,0.299 2.47,1.272 2.47,2.919c0,0.898 -0.149,2.096 -0.449,3.593c-3.443,-0.299 -8.159,-0.561 -14.148,-0.786c-5.988,-0.225 -11.602,-0.337 -16.842,-0.337c-3.893,0 -8.01,0.112 -12.351,0.337c-4.342,0.225 -8.459,0.487 -12.351,0.786c-0.3,-1.497 -0.45,-2.695 -0.45,-3.593c0,-1.497 0.674,-2.395 2.022,-2.695c3.293,-0.748 5.988,-1.647 8.084,-2.695c2.096,-1.048 3.144,-2.769 3.144,-5.165l0,-115.876Z" style="fill:#707070;fill-rule:nonzero;"/><g transform="matrix(0.850576,0,0,0.471009,-5001.74,-551.982)"><g transform="matrix(1.529,0,0,2.76116,-3146.41,-2909.71)"><path d="M5954.07,1689.95l21.708,0l0,-2.16l-19.386,0l0,-15.822l15.066,0l0,-2.16l-15.066,0l0,-15.498l18.36,0l0,-2.16l-20.682,0l0,37.8Z" style="fill:none;"/><path d="M5983.82,1689.95l2.268,0l0,-13.176c0,-1.296 0.108,-2.538 0.432,-3.672c1.242,-4.482 5.022,-8.694 9.828,-8.694c5.94,0 6.588,4.59 6.588,9.234l0,16.308l2.268,0l0,-13.176c0,-1.566 0.162,-2.916 0.54,-4.158c1.188,-4.212 5.022,-8.208 9.504,-8.208c5.724,0 6.75,4.158 6.75,9.234l0,16.308l2.268,0l0,-17.118c0,-6.426 -2.052,-10.53 -9.018,-10.53c-4.644,0 -8.748,3.564 -10.26,7.344l-0.108,0c-0.594,-4.806 -3.132,-7.344 -8.532,-7.344c-4.212,0 -9.018,3.564 -10.368,7.614l-0.108,0c0,0 0.216,-0.972 0.216,-2.214l0,-4.752l-2.268,0l0,27Z" style="fill:none;"/><path d="M6033.39,1689.95l2.268,0l0,-3.078c0,-1.404 -0.216,-2.376 -0.216,-2.376l0.108,0c0,0 2.538,6.102 9.342,6.102c7.074,0 12.096,-5.562 12.096,-14.148c0,-8.37 -4.428,-14.148 -11.664,-14.148c-7.452,0 -9.774,6.102 -9.774,6.102l-0.108,0c0,0 0.216,-0.972 0.216,-2.214l0,-14.04l-2.268,0l0,37.8Zm2.214,-13.446c0,-8.478 4.644,-11.988 9.612,-11.988c5.508,0 9.396,4.644 9.396,11.934c0,7.56 -4.32,11.934 -9.612,11.934c-6.318,0 -9.396,-5.886 -9.396,-11.88Z" style="fill:none;"/><path d="M6062.77,1676.51c0,8.586 6.318,14.094 13.932,14.094c5.832,0 9.612,-3.726 9.612,-3.726l-1.242,-1.89c0,0 -3.186,3.402 -8.37,3.402c-6.264,0 -11.556,-4.482 -11.556,-12.312l21.654,0c0,0 0.108,-0.864 0.108,-1.458c0,-6.534 -3.672,-12.312 -11.016,-12.312c-6.912,0 -13.122,5.076 -13.122,14.202Zm2.538,-2.538c0.972,-6.318 5.562,-9.558 10.53,-9.558c4.482,0 8.424,2.97 8.694,9.558l-19.224,0Z" style="fill:none;"/><path d="M6092.74,1676.45c0,8.37 4.428,14.148 11.664,14.148c7.452,0 9.774,-6.102 9.774,-6.102l0.108,0c0,0 -0.216,0.81 -0.216,2.052l0,3.402l2.268,0l0,-37.8l-2.268,0l0,14.04c0,1.242 0.216,2.214 0.216,2.214l-0.108,0c0,0 -2.538,-6.102 -9.342,-6.102c-7.074,0 -12.096,5.562 -12.096,14.148Zm2.376,0c0,-7.56 4.32,-11.934 9.612,-11.934c6.318,0 9.396,5.886 9.396,11.88c0,8.478 -4.644,11.988 -9.612,11.988c-5.508,0 -9.396,-4.644 -9.396,-11.934Z" style="fill:none;"/><path d="M6124.06,1676.45c0,8.37 4.428,14.148 11.664,14.148c7.452,0 9.774,-6.102 9.774,-6.102l0.108,0c0,0 -0.216,0.81 -0.216,2.052l0,3.402l2.268,0l0,-37.8l-2.268,0l0,14.04c0,1.242 0.216,2.214 0.216,2.214l-0.108,0c0,0 -2.538,-6.102 -9.342,-6.102c-7.074,0 -12.096,5.562 -12.096,14.148Zm2.376,0c0,-7.56 4.32,-11.934 9.612,-11.934c6.318,0 9.396,5.886 9.396,11.88c0,8.478 -4.644,11.988 -9.612,11.988c-5.508,0 -9.396,-4.644 -9.396,-11.934Z" style="fill:none;"/><path d="M6155.27,1676.51c0,8.586 6.318,14.094 13.932,14.094c5.832,0 9.612,-3.726 9.612,-3.726l-1.242,-1.89c0,0 -3.186,3.402 -8.37,3.402c-6.264,0 -11.556,-4.482 -11.556,-12.312l21.654,0c0,0 0.108,-0.864 0.108,-1.458c0,-6.534 -3.672,-12.312 -11.016,-12.312c-6.912,0 -13.122,5.076 -13.122,14.202Zm2.538,-2.538c0.972,-6.318 5.562,-9.558 10.53,-9.558c4.482,0 8.424,2.97 8.694,9.558l-19.224,0Z" style="fill:none;"/><path d="M6185.24,1676.45c0,8.37 4.428,14.148 11.664,14.148c7.452,0 9.774,-6.102 9.774,-6.102l0.108,0c0,0 -0.216,0.81 -0.216,2.052l0,3.402l2.268,0l0,-37.8l-2.268,0l0,14.04c0,1.242 0.216,2.214 0.216,2.214l-0.108,0c0,0 -2.538,-6.102 -9.342,-6.102c-7.074,0 -12.096,5.562 -12.096,14.148Zm2.376,0c0,-7.56 4.32,-11.934 9.612,-11.934c6.318,0 9.396,5.886 9.396,11.88c0,8.478 -4.644,11.988 -9.612,11.988c-5.508,0 -9.396,-4.644 -9.396,-11.934Z" style="fill:none;"/><path d="M6231.57,1685.9c0,0 4.104,4.698 11.556,4.698c6.75,0 10.962,-4.374 10.962,-9.828c0,-12.636 -19.332,-9.558 -19.332,-19.548c0,-3.672 3.348,-7.452 8.964,-7.452c5.022,0 8.262,3.24 8.262,3.24l1.296,-1.998c0,0 -3.456,-3.51 -9.612,-3.51c-6.858,0 -11.34,4.752 -11.34,9.774c0,11.826 19.332,8.856 19.332,19.602c0,4.536 -3.726,7.452 -8.424,7.452c-6.264,0 -10.098,-4.212 -10.098,-4.212l-1.566,1.782Z" style="fill:none;"/><path d="M6259.92,1676.29c0,8.046 6.264,14.31 13.986,14.31c7.722,0 13.986,-6.264 13.986,-14.31c0,-7.884 -6.264,-13.986 -13.986,-13.986c-7.722,0 -13.986,6.102 -13.986,13.986Zm2.376,0c0,-6.696 5.184,-11.772 11.61,-11.772c6.426,0 11.61,5.076 11.61,11.772c0,6.858 -5.184,12.096 -11.61,12.096c-6.426,0 -11.61,-5.238 -11.61,-12.096Z" style="fill:none;"/><path d="M6296.37,1689.95l2.268,0l0,-24.786l7.398,0l0,-2.052l-7.398,0l0,-1.296c0,-6.966 4.266,-7.83 6.426,-7.83c0.756,0 1.242,0.108 1.242,0.108l0,-2.106c0,0 -0.54,-0.108 -1.404,-0.108c-2.7,0 -8.532,1.08 -8.532,9.99l0,1.242l-3.402,0l0,2.052l3.402,0l0,24.786Z" style="fill:none;"/><path d="M6312.57,1680.18c0,8.964 5.778,9.99 8.586,9.99c0.81,0 1.35,-0.108 1.35,-0.108l0,-2.106c0,0 -0.486,0.108 -1.242,0.108c-2.16,0 -6.426,-0.918 -6.426,-8.046l0,-14.85l7.074,0l0,-2.052l-7.074,0l0,-7.668l-2.268,0l0,7.668l-3.564,0l0,2.052l3.564,0l0,15.012Z" style="fill:none;"/><path d="M6334.55,1689.95l2.43,0l7.452,-20.952c0.486,-1.296 0.918,-2.916 0.918,-2.916l0.108,0c0,0 0.432,1.62 0.918,2.916l7.506,20.952l2.43,0l9.504,-27l-2.43,0l-7.344,21.168c-0.486,1.35 -0.918,2.916 -0.918,2.916l-0.108,0c0,0 -0.486,-1.62 -0.918,-2.916l-7.398,-21.06l-2.538,0l-7.398,21.06c-0.432,1.296 -0.918,2.916 -0.918,2.916l-0.108,0c0,0 -0.486,-1.62 -0.918,-2.916l-7.344,-21.168l-2.43,0l9.504,27Z" style="fill:none;"/><path d="M6369.49,1682.77c0,5.4 4.806,7.83 9.18,7.83c7.02,0 9.504,-6.642 9.45,-6.642l0.108,0c0,0 -0.216,0.972 -0.216,2.43l0,3.564l2.268,0l0,-17.442c0,-6.75 -3.348,-10.206 -9.558,-10.206c-5.886,0 -9.126,2.97 -9.126,2.97l1.296,1.836c0,0 3.024,-2.592 7.722,-2.592c4.32,0 7.398,2.052 7.398,8.046l0,0.918l-1.782,0c-4.806,0 -16.74,0.108 -16.74,9.288Zm2.376,-0.162c0,-7.02 9.828,-7.02 14.418,-7.02l1.728,0l0,1.458c0,5.346 -3.348,11.448 -9.234,11.448c-4.59,0 -6.912,-3.024 -6.912,-5.886Z" style="fill:none;"/><path d="M6399.4,1689.95l2.268,0l0,-11.664c0,-1.782 0.216,-3.78 0.81,-5.67c1.188,-3.996 3.834,-7.56 8.046,-7.56c0.594,0 1.242,0.108 1.242,0.108l0,-2.268c0,0 -0.756,-0.162 -1.566,-0.162c-4.266,0 -7.29,3.402 -8.64,7.56l-0.108,0c0,0 0.216,-0.972 0.216,-2.214l0,-5.13l-2.268,0l0,27Z" style="fill:none;"/><path d="M6415.12,1676.51c0,8.586 6.318,14.094 13.932,14.094c5.832,0 9.612,-3.726 9.612,-3.726l-1.242,-1.89c0,0 -3.186,3.402 -8.37,3.402c-6.264,0 -11.556,-4.482 -11.556,-12.312l21.654,0c0,0 0.108,-0.864 0.108,-1.458c0,-6.534 -3.672,-12.312 -11.016,-12.312c-6.912,0 -13.122,5.076 -13.122,14.202Zm2.538,-2.538c0.972,-6.318 5.562,-9.558 10.53,-9.558c4.482,0 8.424,2.97 8.694,9.558l-19.224,0Z" style="fill:none;"/><path d="M6070.82,1755.95l2.322,0l2.322,-28.836c0.162,-1.836 0.162,-5.13 0.162,-5.13l0.108,0c0,0 1.188,3.348 1.998,5.13l10.098,21.546l2.376,0l10.152,-21.546c0.864,-1.836 1.944,-5.022 1.944,-5.022l0.108,0c0,0 0,3.186 0.162,5.022l2.322,28.836l2.322,0l-3.024,-37.8l-2.268,0l-11.016,23.76c-0.864,1.836 -1.836,4.266 -1.836,4.266l-0.108,0c0,0 -0.972,-2.43 -1.836,-4.266l-11.016,-23.76l-2.268,0l-3.024,37.8Z" style="fill:none;"/><path d="M6114.5,1748.77c0,5.4 4.806,7.83 9.18,7.83c7.02,0 9.504,-6.642 9.45,-6.642l0.108,0c0,0 -0.216,0.972 -0.216,2.43l0,3.564l2.268,0l0,-17.442c0,-6.75 -3.348,-10.206 -9.558,-10.206c-5.886,0 -9.126,2.97 -9.126,2.97l1.296,1.836c0,0 3.024,-2.592 7.722,-2.592c4.32,0 7.398,2.052 7.398,8.046l0,0.918l-1.782,0c-4.806,0 -16.74,0.108 -16.74,9.288Zm2.376,-0.162c0,-7.02 9.828,-7.02 14.418,-7.02l1.728,0l0,1.458c0,5.346 -3.348,11.448 -9.234,11.448c-4.59,0 -6.912,-3.024 -6.912,-5.886Z" style="fill:none;"/><path d="M6142.64,1742.45c0,8.37 4.428,14.148 11.664,14.148c7.452,0 9.774,-6.102 9.774,-6.102l0.108,0c0,0 -0.216,0.81 -0.216,2.052l0,3.402l2.268,0l0,-37.8l-2.268,0l0,14.04c0,1.242 0.216,2.214 0.216,2.214l-0.108,0c0,0 -2.538,-6.102 -9.342,-6.102c-7.074,0 -12.096,5.562 -12.096,14.148Zm2.376,0c0,-7.56 4.32,-11.934 9.612,-11.934c6.318,0 9.396,5.886 9.396,11.88c0,8.478 -4.644,11.988 -9.612,11.988c-5.508,0 -9.396,-4.644 -9.396,-11.934Z" style="fill:none;"/><path d="M6173.85,1742.51c0,8.586 6.318,14.094 13.932,14.094c5.832,0 9.612,-3.726 9.612,-3.726l-1.242,-1.89c0,0 -3.186,3.402 -8.37,3.402c-6.264,0 -11.556,-4.482 -11.556,-12.312l21.654,0c0,0 0.108,-0.864 0.108,-1.458c0,-6.534 -3.672,-12.312 -11.016,-12.312c-6.912,0 -13.122,5.076 -13.122,14.202Zm2.538,-2.538c0.972,-6.318 5.562,-9.558 10.53,-9.558c4.482,0 8.424,2.97 8.694,9.558l-19.224,0Z" style="fill:none;"/><path d="M6221.64,1755.95l21.708,0l0,-2.16l-19.386,0l0,-15.822l15.066,0l0,-2.16l-15.066,0l0,-15.498l18.36,0l0,-2.16l-20.682,0l0,37.8Z" style="fill:none;"/><path d="M6249.18,1748.77c0,5.4 4.806,7.83 9.18,7.83c7.02,0 9.504,-6.642 9.45,-6.642l0.108,0c0,0 -0.216,0.972 -0.216,2.43l0,3.564l2.268,0l0,-17.442c0,-6.75 -3.348,-10.206 -9.558,-10.206c-5.886,0 -9.126,2.97 -9.126,2.97l1.296,1.836c0,0 3.024,-2.592 7.722,-2.592c4.32,0 7.398,2.052 7.398,8.046l0,0.918l-1.782,0c-4.806,0 -16.74,0.108 -16.74,9.288Zm2.376,-0.162c0,-7.02 9.828,-7.02 14.418,-7.02l1.728,0l0,1.458c0,5.346 -3.348,11.448 -9.234,11.448c-4.59,0 -6.912,-3.024 -6.912,-5.886Z" style="fill:none;"/><path d="M6276.77,1752.72c0,0 3.24,3.888 9.774,3.888c4.968,0 8.64,-2.97 8.64,-7.29c0,-8.964 -14.85,-6.858 -14.85,-13.878c0,-3.51 3.024,-4.914 6.102,-4.914c4.59,0 6.804,2.538 6.804,2.538l1.35,-1.836c0,0 -2.484,-2.916 -7.992,-2.916c-4.59,0 -8.64,2.484 -8.64,7.29c0,8.802 14.85,6.858 14.85,13.716c0,3.348 -2.916,5.076 -6.21,5.076c-5.346,0 -8.37,-3.402 -8.37,-3.402l-1.458,1.728Z" style="fill:none;"/><path d="M6298.32,1765.78c0,0 1.782,1.512 4.374,1.512c3.402,0 5.67,-2.214 6.858,-5.022l13.878,-33.318l-2.43,0l-8.91,21.546c-0.54,1.296 -0.918,2.538 -0.918,2.538l-0.108,0c0,0 -0.432,-1.242 -0.972,-2.538l-8.91,-21.546l-2.43,0l11.178,26.838l-1.944,4.482c-1.08,2.538 -2.7,4.86 -5.292,4.86c-1.836,0 -3.348,-1.296 -3.348,-1.296l-1.026,1.944Z" style="fill:none;"/></g><g transform="matrix(1.529,0,0,2.76116,-3146.41,-2909.71)"><path d="M5954.07,1689.95l21.708,0l0,-2.16l-19.386,0l0,-15.822l15.066,0l0,-2.16l-15.066,0l0,-15.498l18.36,0l0,-2.16l-20.682,0l0,37.8Z" style="fill:#424242;fill-rule:nonzero;"/><path d="M5983.82,1689.95l2.268,0l0,-13.176c0,-1.296 0.108,-2.538 0.432,-3.672c1.242,-4.482 5.022,-8.694 9.828,-8.694c5.94,0 6.588,4.59 6.588,9.234l0,16.308l2.268,0l0,-13.176c0,-1.566 0.162,-2.916 0.54,-4.158c1.188,-4.212 5.022,-8.208 9.504,-8.208c5.724,0 6.75,4.158 6.75,9.234l0,16.308l2.268,0l0,-17.118c0,-6.426 -2.052,-10.53 -9.018,-10.53c-4.644,0 -8.748,3.564 -10.26,7.344l-0.108,0c-0.594,-4.806 -3.132,-7.344 -8.532,-7.344c-4.212,0 -9.018,3.564 -10.368,7.614l-0.108,0c0,0 0.216,-0.972 0.216,-2.214l0,-4.752l-2.268,0l0,27Z" style="fill:#424242;fill-rule:nonzero;"/><path d="M6033.39,1689.95l2.268,0l0,-3.078c0,-1.404 -0.216,-2.376 -0.216,-2.376l0.108,0c0,0 2.538,6.102 9.342,6.102c7.074,0 12.096,-5.562 12.096,-14.148c0,-8.37 -4.428,-14.148 -11.664,-14.148c-7.452,0 -9.774,6.102 -9.774,6.102l-0.108,0c0,0 0.216,-0.972 0.216,-2.214l0,-14.04l-2.268,0l0,37.8Zm2.214,-13.446c0,-8.478 4.644,-11.988 9.612,-11.988c5.508,0 9.396,4.644 9.396,11.934c0,7.56 -4.32,11.934 -9.612,11.934c-6.318,0 -9.396,-5.886 -9.396,-11.88Z" style="fill:#424242;fill-rule:nonzero;"/><path d="M6062.77,1676.51c0,8.586 6.318,14.094 13.932,14.094c5.832,0 9.612,-3.726 9.612,-3.726l-1.242,-1.89c0,0 -3.186,3.402 -8.37,3.402c-6.264,0 -11.556,-4.482 -11.556,-12.312l21.654,0c0,0 0.108,-0.864 0.108,-1.458c0,-6.534 -3.672,-12.312 -11.016,-12.312c-6.912,0 -13.122,5.076 -13.122,14.202Zm2.538,-2.538c0.972,-6.318 5.562,-9.558 10.53,-9.558c4.482,0 8.424,2.97 8.694,9.558l-19.224,0Z" style="fill:#424242;fill-rule:nonzero;"/><path d="M6092.74,1676.45c0,8.37 4.428,14.148 11.664,14.148c7.452,0 9.774,-6.102 9.774,-6.102l0.108,0c0,0 -0.216,0.81 -0.216,2.052l0,3.402l2.268,0l0,-37.8l-2.268,0l0,14.04c0,1.242 0.216,2.214 0.216,2.214l-0.108,0c0,0 -2.538,-6.102 -9.342,-6.102c-7.074,0 -12.096,5.562 -12.096,14.148Zm2.376,0c0,-7.56 4.32,-11.934 9.612,-11.934c6.318,0 9.396,5.886 9.396,11.88c0,8.478 -4.644,11.988 -9.612,11.988c-5.508,0 -9.396,-4.644 -9.396,-11.934Z" style="fill:#424242;fill-rule:nonzero;"/><path d="M6124.06,1676.45c0,8.37 4.428,14.148 11.664,14.148c7.452,0 9.774,-6.102 9.774,-6.102l0.108,0c0,0 -0.216,0.81 -0.216,2.052l0,3.402l2.268,0l0,-37.8l-2.268,0l0,14.04c0,1.242 0.216,2.214 0.216,2.214l-0.108,0c0,0 -2.538,-6.102 -9.342,-6.102c-7.074,0 -12.096,5.562 -12.096,14.148Zm2.376,0c0,-7.56 4.32,-11.934 9.612,-11.934c6.318,0 9.396,5.886 9.396,11.88c0,8.478 -4.644,11.988 -9.612,11.988c-5.508,0 -9.396,-4.644 -9.396,-11.934Z" style="fill:#424242;fill-rule:nonzero;"/><path d="M6155.27,1676.51c0,8.586 6.318,14.094 13.932,14.094c5.832,0 9.612,-3.726 9.612,-3.726l-1.242,-1.89c0,0 -3.186,3.402 -8.37,3.402c-6.264,0 -11.556,-4.482 -11.556,-12.312l21.654,0c0,0 0.108,-0.864 0.108,-1.458c0,-6.534 -3.672,-12.312 -11.016,-12.312c-6.912,0 -13.122,5.076 -13.122,14.202Zm2.538,-2.538c0.972,-6.318 5.562,-9.558 10.53,-9.558c4.482,0 8.424,2.97 8.694,9.558l-19.224,0Z" style="fill:#424242;fill-rule:nonzero;"/><path d="M6185.24,1676.45c0,8.37 4.428,14.148 11.664,14.148c7.452,0 9.774,-6.102 9.774,-6.102l0.108,0c0,0 -0.216,0.81 -0.216,2.052l0,3.402l2.268,0l0,-37.8l-2.268,0l0,14.04c0,1.242 0.216,2.214 0.216,2.214l-0.108,0c0,0 -2.538,-6.102 -9.342,-6.102c-7.074,0 -12.096,5.562 -12.096,14.148Zm2.376,0c0,-7.56 4.32,-11.934 9.612,-11.934c6.318,0 9.396,5.886 9.396,11.88c0,8.478 -4.644,11.988 -9.612,11.988c-5.508,0 -9.396,-4.644 -9.396,-11.934Z" style="fill:#424242;fill-rule:nonzero;"/><path d="M6231.57,1685.9c0,0 4.104,4.698 11.556,4.698c6.75,0 10.962,-4.374 10.962,-9.828c0,-12.636 -19.332,-9.558 -19.332,-19.548c0,-3.672 3.348,-7.452 8.964,-7.452c5.022,0 8.262,3.24 8.262,3.24l1.296,-1.998c0,0 -3.456,-3.51 -9.612,-3.51c-6.858,0 -11.34,4.752 -11.34,9.774c0,11.826 19.332,8.856 19.332,19.602c0,4.536 -3.726,7.452 -8.424,7.452c-6.264,0 -10.098,-4.212 -10.098,-4.212l-1.566,1.782Z" style="fill:#424242;fill-rule:nonzero;"/><path d="M6259.92,1676.29c0,8.046 6.264,14.31 13.986,14.31c7.722,0 13.986,-6.264 13.986,-14.31c0,-7.884 -6.264,-13.986 -13.986,-13.986c-7.722,0 -13.986,6.102 -13.986,13.986Zm2.376,0c0,-6.696 5.184,-11.772 11.61,-11.772c6.426,0 11.61,5.076 11.61,11.772c0,6.858 -5.184,12.096 -11.61,12.096c-6.426,0 -11.61,-5.238 -11.61,-12.096Z" style="fill:#424242;fill-rule:nonzero;"/><path d="M6296.37,1689.95l2.268,0l0,-24.786l7.398,0l0,-2.052l-7.398,0l0,-1.296c0,-6.966 4.266,-7.83 6.426,-7.83c0.756,0 1.242,0.108 1.242,0.108l0,-2.106c0,0 -0.54,-0.108 -1.404,-0.108c-2.7,0 -8.532,1.08 -8.532,9.99l0,1.242l-3.402,0l0,2.052l3.402,0l0,24.786Z" style="fill:#424242;fill-rule:nonzero;"/><path d="M6312.57,1680.18c0,8.964 5.778,9.99 8.586,9.99c0.81,0 1.35,-0.108 1.35,-0.108l0,-2.106c0,0 -0.486,0.108 -1.242,0.108c-2.16,0 -6.426,-0.918 -6.426,-8.046l0,-14.85l7.074,0l0,-2.052l-7.074,0l0,-7.668l-2.268,0l0,7.668l-3.564,0l0,2.052l3.564,0l0,15.012Z" style="fill:#424242;fill-rule:nonzero;"/><path d="M6334.55,1689.95l2.43,0l7.452,-20.952c0.486,-1.296 0.918,-2.916 0.918,-2.916l0.108,0c0,0 0.432,1.62 0.918,2.916l7.506,20.952l2.43,0l9.504,-27l-2.43,0l-7.344,21.168c-0.486,1.35 -0.918,2.916 -0.918,2.916l-0.108,0c0,0 -0.486,-1.62 -0.918,-2.916l-7.398,-21.06l-2.538,0l-7.398,21.06c-0.432,1.296 -0.918,2.916 -0.918,2.916l-0.108,0c0,0 -0.486,-1.62 -0.918,-2.916l-7.344,-21.168l-2.43,0l9.504,27Z" style="fill:#424242;fill-rule:nonzero;"/><path d="M6369.49,1682.77c0,5.4 4.806,7.83 9.18,7.83c7.02,0 9.504,-6.642 9.45,-6.642l0.108,0c0,0 -0.216,0.972 -0.216,2.43l0,3.564l2.268,0l0,-17.442c0,-6.75 -3.348,-10.206 -9.558,-10.206c-5.886,0 -9.126,2.97 -9.126,2.97l1.296,1.836c0,0 3.024,-2.592 7.722,-2.592c4.32,0 7.398,2.052 7.398,8.046l0,0.918l-1.782,0c-4.806,0 -16.74,0.108 -16.74,9.288Zm2.376,-0.162c0,-7.02 9.828,-7.02 14.418,-7.02l1.728,0l0,1.458c0,5.346 -3.348,11.448 -9.234,11.448c-4.59,0 -6.912,-3.024 -6.912,-5.886Z" style="fill:#424242;fill-rule:nonzero;"/><path d="M6399.4,1689.95l2.268,0l0,-11.664c0,-1.782 0.216,-3.78 0.81,-5.67c1.188,-3.996 3.834,-7.56 8.046,-7.56c0.594,0 1.242,0.108 1.242,0.108l0,-2.268c0,0 -0.756,-0.162 -1.566,-0.162c-4.266,0 -7.29,3.402 -8.64,7.56l-0.108,0c0,0 0.216,-0.972 0.216,-2.214l0,-5.13l-2.268,0l0,27Z" style="fill:#424242;fill-rule:nonzero;"/><path d="M6415.12,1676.51c0,8.586 6.318,14.094 13.932,14.094c5.832,0 9.612,-3.726 9.612,-3.726l-1.242,-1.89c0,0 -3.186,3.402 -8.37,3.402c-6.264,0 -11.556,-4.482 -11.556,-12.312l21.654,0c0,0 0.108,-0.864 0.108,-1.458c0,-6.534 -3.672,-12.312 -11.016,-12.312c-6.912,0 -13.122,5.076 -13.122,14.202Zm2.538,-2.538c0.972,-6.318 5.562,-9.558 10.53,-9.558c4.482,0 8.424,2.97 8.694,9.558l-19.224,0Z" style="fill:#424242;fill-rule:nonzero;"/><path d="M6070.82,1755.95l2.322,0l2.322,-28.836c0.162,-1.836 0.162,-5.13 0.162,-5.13l0.108,0c0,0 1.188,3.348 1.998,5.13l10.098,21.546l2.376,0l10.152,-21.546c0.864,-1.836 1.944,-5.022 1.944,-5.022l0.108,0c0,0 0,3.186 0.162,5.022l2.322,28.836l2.322,0l-3.024,-37.8l-2.268,0l-11.016,23.76c-0.864,1.836 -1.836,4.266 -1.836,4.266l-0.108,0c0,0 -0.972,-2.43 -1.836,-4.266l-11.016,-23.76l-2.268,0l-3.024,37.8Z" style="fill:#424242;fill-rule:nonzero;"/><path d="M6114.5,1748.77c0,5.4 4.806,7.83 9.18,7.83c7.02,0 9.504,-6.642 9.45,-6.642l0.108,0c0,0 -0.216,0.972 -0.216,2.43l0,3.564l2.268,0l0,-17.442c0,-6.75 -3.348,-10.206 -9.558,-10.206c-5.886,0 -9.126,2.97 -9.126,2.97l1.296,1.836c0,0 3.024,-2.592 7.722,-2.592c4.32,0 7.398,2.052 7.398,8.046l0,0.918l-1.782,0c-4.806,0 -16.74,0.108 -16.74,9.288Zm2.376,-0.162c0,-7.02 9.828,-7.02 14.418,-7.02l1.728,0l0,1.458c0,5.346 -3.348,11.448 -9.234,11.448c-4.59,0 -6.912,-3.024 -6.912,-5.886Z" style="fill:#424242;fill-rule:nonzero;"/><path d="M6142.64,1742.45c0,8.37 4.428,14.148 11.664,14.148c7.452,0 9.774,-6.102 9.774,-6.102l0.108,0c0,0 -0.216,0.81 -0.216,2.052l0,3.402l2.268,0l0,-37.8l-2.268,0l0,14.04c0,1.242 0.216,2.214 0.216,2.214l-0.108,0c0,0 -2.538,-6.102 -9.342,-6.102c-7.074,0 -12.096,5.562 -12.096,14.148Zm2.376,0c0,-7.56 4.32,-11.934 9.612,-11.934c6.318,0 9.396,5.886 9.396,11.88c0,8.478 -4.644,11.988 -9.612,11.988c-5.508,0 -9.396,-4.644 -9.396,-11.934Z" style="fill:#424242;fill-rule:nonzero;"/><path d="M6173.85,1742.51c0,8.586 6.318,14.094 13.932,14.094c5.832,0 9.612,-3.726 9.612,-3.726l-1.242,-1.89c0,0 -3.186,3.402 -8.37,3.402c-6.264,0 -11.556,-4.482 -11.556,-12.312l21.654,0c0,0 0.108,-0.864 0.108,-1.458c0,-6.534 -3.672,-12.312 -11.016,-12.312c-6.912,0 -13.122,5.076 -13.122,14.202Zm2.538,-2.538c0.972,-6.318 5.562,-9.558 10.53,-9.558c4.482,0 8.424,2.97 8.694,9.558l-19.224,0Z" style="fill:#424242;fill-rule:nonzero;"/><path d="M6221.64,1755.95l21.708,0l0,-2.16l-19.386,0l0,-15.822l15.066,0l0,-2.16l-15.066,0l0,-15.498l18.36,0l0,-2.16l-20.682,0l0,37.8Z" style="fill:#424242;fill-rule:nonzero;"/><path d="M6249.18,1748.77c0,5.4 4.806,7.83 9.18,7.83c7.02,0 9.504,-6.642 9.45,-6.642l0.108,0c0,0 -0.216,0.972 -0.216,2.43l0,3.564l2.268,0l0,-17.442c0,-6.75 -3.348,-10.206 -9.558,-10.206c-5.886,0 -9.126,2.97 -9.126,2.97l1.296,1.836c0,0 3.024,-2.592 7.722,-2.592c4.32,0 7.398,2.052 7.398,8.046l0,0.918l-1.782,0c-4.806,0 -16.74,0.108 -16.74,9.288Zm2.376,-0.162c0,-7.02 9.828,-7.02 14.418,-7.02l1.728,0l0,1.458c0,5.346 -3.348,11.448 -9.234,11.448c-4.59,0 -6.912,-3.024 -6.912,-5.886Z" style="fill:#424242;fill-rule:nonzero;"/><path d="M6276.77,1752.72c0,0 3.24,3.888 9.774,3.888c4.968,0 8.64,-2.97 8.64,-7.29c0,-8.964 -14.85,-6.858 -14.85,-13.878c0,-3.51 3.024,-4.914 6.102,-4.914c4.59,0 6.804,2.538 6.804,2.538l1.35,-1.836c0,0 -2.484,-2.916 -7.992,-2.916c-4.59,0 -8.64,2.484 -8.64,7.29c0,8.802 14.85,6.858 14.85,13.716c0,3.348 -2.916,5.076 -6.21,5.076c-5.346,0 -8.37,-3.402 -8.37,-3.402l-1.458,1.728Z" style="fill:#424242;fill-rule:nonzero;"/><path d="M6298.32,1765.78c0,0 1.782,1.512 4.374,1.512c3.402,0 5.67,-2.214 6.858,-5.022l13.878,-33.318l-2.43,0l-8.91,21.546c-0.54,1.296 -0.918,2.538 -0.918,2.538l-0.108,0c0,0 -0.432,-1.242 -0.972,-2.538l-8.91,-21.546l-2.43,0l11.178,26.838l-1.944,4.482c-1.08,2.538 -2.7,4.86 -5.292,4.86c-1.836,0 -3.348,-1.296 -3.348,-1.296l-1.026,1.944Z" style="fill:#424242;fill-rule:nonzero;"/></g></g></svg>